# WaveFront Object format image created with Surf Ice
v -0.4905090332 2.998397827 -35.24959183
v -0.4962005615 3.48526001 -35.24910355
v 1.491500854 3.501800537 -35.24937057
v 1.501670837 3.011505127 -35.24925232
v -0.4690093994 2.500579834 -35.22858047
v 0.6819992065 4.003646851 -35.2310791
v 0 4 -35.22849655
v 2 3 -35.2263031
v 1.467399597 2.504318237 -35.22929764
v 2 3.5 -35.2263031
v 1.5 4 -35.22399521
v -0.5 4 -35.21821213
v -1 3 -35.21778107
v -1 3.5 -35.21581268
v 2 2.5 -35.19001007
v 2 4 -35.1830101
v -1 2.5 -35.18029785
v -1 4 -35.16051102
v 1.5 2 -35.11894226
v 0.8921127319 4.502197266 -35.1180954
v 0 4.5 -35.10321426
v 1.5 4.5 -35.09072113
v -0.5 4.5 -35.05574417
v 2.502532959 2.502334595 -35.05369186
v -1.517127991 3.002044678 -35.03463364
v -1.511573792 3.50177002 -35.03041458
v -1.433662415 2.5 -35
v 2.509689331 4.007263184 -35.03064346
v 1.5 1.781677246 -35
v 0.5000076294 4.669403076 -35
v 0 4.641113281 -35
v 1.987182617 4.493972778 -34.99346542
v -0.496307373 1.997268677 -35.1179657
v -0.713760376 4.5 -35
v -0.5 4.566925049 -35
v -1.350738525 4 -35
v 1.5 4.624679565 -35
v 2.499710083 3.490188599 -35.11890793
v -1.003067017 2.000793457 -35.03635788
v 1 4.669403076 -35
v -1 4.355529785 -35
v 1.999450684 2.003204346 -35.05497742
v -1.5 3.655792236 -35
v 0.01245880127 1.99596405 -35.12958527
v 2.502540588 3.004577637 -35.11855316
v 0.9602584839 1.997367859 -35.13012695
v -1.489395142 2.535705566 -34.97638321
v -1 4.5 -34.88764191
v 2.499458313 2.002502441 -34.88603973
v -1.5 4 -34.88124847
v -0.0001068115234 1.5 -34.85074615
v 1.425689697 1.500015259 -34.84826279
v 3 3 -34.84506989
v -0.5 1.499992371 -34.84067535
v 3 3.5 -34.84067535
v 3 2.5 -34.81482697
v 2 1.5 -34.81482697
v -1 1.500007629 -34.77855682
v 3 4 -34.77812958
v 2.5 4.5 -34.76936722
v -1.5 2 -34.76393127
v 3 2 -34.73453522
v 2.5 1.5 -34.73453522
v 0.5000076294 5 -34.72463989
v 1 5 -34.72463989
v 1.49861145 5.103439331 -34.55846786
v -1.5 1.5 -34.59169388
v 3 4.5 -34.58440399
v 2.007629395 4.989715576 -34.48682404
v -1.930435181 3 -34.5
v -1.920700073 3.5 -34.5
v 3.500358582 2.991546631 -34.64809418
v 1.471618652 1.002281189 -34.64957047
v -1.830215454 2 -34.5
v 3.494903564 3.485412598 -34.63882065
v 3.496696472 4.002471924 -34.56124496
v 1 5.224639893 -34.5
v 0.5000076294 5.224639893 -34.5
v -1.836456299 4 -34.5
v -0.9977340698 0.9855651855 -34.56057358
v 3.507118225 2.004623413 -34.55717468
v 3.505119324 2.507949829 -34.63093948
v 0.01405334473 1.000007629 -34.64953995
v -1.519607544 1.475830078 -34.56808472
v -1.906272888 2.5 -34.5
v 0.004638671875 5.008605957 -34.65567398
v 3 4.630950928 -34.5
v -1 4.832122803 -34.5
v -0.49584198 1.00037384 -34.63720322
v -0.5026473999 4.995941162 -34.49438477
v 1.501502991 0.4990844727 -34.35020828
v 2.5 4.825317383 -34.5
v 3.013954163 1.493713379 -34.59115219
v 2.501419067 1.000221252 -34.55610657
v 1.978569031 1.004592896 -34.63473129
v -1.495605469 4.495773315 -34.48818207
v 3.515037537 1.505126953 -34.3724823
v -2 3 -34.43872833
v -2 3.5 -34.43182755
v -2 2.5 -34.42333221
v -1.5 1 -34.39677811
v -1.999992371 2 -34.38722992
v -2 4 -34.38582611
v 2.999992371 1 -34.37049103
v 2.5 5 -34.36933517
v -1 5 -34.36842728
v -0.4294433594 0.5005722046 -34.34810257
v 3.490722656 4.496627808 -34.3557663
v 4 3 -34.34886932
v -2 1.5 -34.34230804
v 4 3.5 -34.34032059
v 2 0.5 -34.34002304
v 4 2.5 -34.33840179
v -1 0.5 -34.31386948
v 4 2 -34.29405975
v -2 4.5 -34.28821564
v 2.5 0.5 -34.28491211
v 4 4 -34.28413391
v 3 5 -34.28103256
v -2 1 -34.2758522
v -2.5 3.5 -34.27523041
v -2.489082336 2.577529907 -34.27810287
v -2.5 2 -34.26750183
v -2.5 4 -34.26021576
v -1.5 0.5 -34.25498962
v -1.5 5 -34.2526207
v -2.5 1.5 -34.24720383
v -3.015731812 2.696731567 -34.22843552
v -3 3.5 -34.22630692
v -3 2 -34.20923615
v -2.5 4.5 -34.20376587
v -3 4 -34.19551468
v 0.5000076294 5.5 -34.18612671
v 1 5.5 -34.18612671
v -2.5 1 -34.18167877
v -2 0.5 -34.17760468
v 3.5 1 -34.17332077
v 4 1.5 -34.15950012
v 0 5.5 -34.15853882
v 1.5 5.5 -34.15807724
v -2 5 -34.15148544
v -3 1.5 -34.14787292
v 0.08757781982 0.0004272460938 -34.13460159
v 1.5 7.629394531E-6 -34.13448334
v 3 0.5 -34.12646866
v 4.002624512 4.5078125 -34.11864853
v 4.5 3.5 -34.1215744
v 4.5 3 -34.12147903
v -0.5 7.629394531E-6 -34.11856461
v -3.5 3 -34.11588287
v 2 7.629394531E-6 -34.11575699
v -0.9964599609 5.500534058 -34.06528473
v 2 5.5 -34.10756302
v -3.5 3.5 -34.10669708
v -3.5 2.5 -34.09724808
v -1 7.629394531E-6 -34.08596802
v 4.5 2.5 -34.085392
v -3.013504028 4.501876831 -34.07999802
v 2.5 5.5 -34.06757736
v -2.498268127 5.003585815 -34.0455246
v -3.507949829 3.996749878 -34.03594589
v -1.5 7.629394531E-6 -34.03734207
v -2.483085632 0.5190353394 -33.99873734
v 3.232185364 0.5 -34
v 4.505638123 1.993537903 -34.00514221
v 3 0.327041626 -34
v -0.5059051514 -0.1485366821 -33.99585342
v 0.1975250244 -0.1852035522 -33.99501801
v 0 5.628875732 -34
v 3.515525818 5.022216797 -34.09469223
v 3.5 5.177841187 -34
v 4.498382568 4.497314453 -33.8531456
v -3.511634827 1.987342834 -34.01234436
v -3.632530212 2.5 -34
v 1.5 5.628723145 -34
v -3.268554688 1.5 -34
v 2 5.600494385 -34
v 2.986610413 5.489349365 -33.98885727
v -1.5442276 -0.02136993408 -34.01138306
v -3.669403076 3 -34
v 0.6895751953 5.640960693 -34.00548172
v 3.794433594 1 -34
v 1.5 -0.1777496338 -34
v 4.243347168 1.5 -34
v 4 1.214508057 -34
v 3.5 0.7271270752 -34
v 2.5 5.568603516 -34
v -1 5.566665649 -34
v -2 5.253082275 -34
v 4.593063354 2.5 -34
v -1.475608826 5.491027832 -33.99084473
v -2 0.1546478271 -34
v -0.5 5.600494385 -34
v -2.979774475 1.031463623 -33.99103928
v -3.65940094 3.5 -34
v 2.500617981 -0.01063537598 -34.0071907
v 4.502563477 3.998748779 -34.05032349
v 4.666351318 3.5 -34
v 2 -0.149559021 -34
v 4.652961731 3 -34
v -2.5 0.5 -33.97133255
v 4 5 -33.85955811
v -3 5 -33.84677887
v -3.5 4.5 -33.84338379
v -2 7.629394531E-6 -33.83476639
v -2 5.5 -33.81388092
v 3.5 5.5 -33.76622009
v -4 3.5 -33.72858429
v -4 3 -33.72414398
v -3.5 1.5 -33.72391891
v 5 3.5 -33.71834946
v -2.5 5.5 -33.71646881
v 5 4 -33.69464111
v -4 4 -33.680336
v 0.5963973999 -0.5011672974 -33.67953873
v 1.5 -0.5 -33.67241669
v 0 -0.5 -33.6637764
v -4.080085754 2.501937866 -33.57669067
v 2 -0.5 -33.61583328
v -3.50957489 5.07510376 -33.56782532
v -0.4912414551 -0.5534973145 -33.51932144
v -3.016685486 5.519256592 -33.5643158
v -4.020988464 4.50743103 -33.51072311
v 4.549850464 1.4871521 -33.50040436
v 0 5.921386719 -33.5
v -4.227363586 3.5 -33.5
v -2 5.837982178 -33.5
v 4.090782166 0.9727249146 -33.49531174
v -3.601325989 1.380065918 -33.49082947
v 5.219573975 4 -33.5
v 3.586547852 0.5 -33.5
v -3.923652649 1.997367859 -33.49745178
v 4 0.8927536011 -33.5
v 0.6862716675 -0.6379241943 -33.49870682
v -4 2.164718628 -33.5
v 3.5 5.77520752 -33.5
v 0 -0.6228942871 -33.5
v 4.5 5.218109131 -33.5
v 4.038948059 5.511856079 -33.54933929
v -1.457855225 5.90234375 -33.49380875
v -0.5 5.918640137 -33.5
v -1.5 -0.3201599121 -33.5
v 2.5 5.898468018 -33.5
v 0.5883483887 5.923751831 -33.49953461
v 2.996452332 5.90473938 -33.4550972
v -2.5 5.779785156 -33.5
v 1.923583984 5.908828735 -33.50180817
v -2.406700134 0.03837585449 -33.4953804
v 5 4.661300659 -33.5
v -3 0.529006958 -33.5
v -4.223327637 3 -33.5
v 5.011749268 4.49659729 -33.56884384
v -4.18296814 4 -33.5
v -2.994491577 0.5040206909 -33.48548889
v -3.662254333 5 -33.5
v 4.563087463 5.026748657 -33.5825882
v 2.5 -0.41065979 -33.5
v 1.5 -0.6290130615 -33.5
v 2 -0.5845031738 -33.5
v -2 -0.1808166504 -33.5
v 3.089431763 7.629394531E-6 -33.5
v 2.261833191 -0.5 -33.5
v 2.996826172 -0.07400512695 -33.51636505
v -3.380050659 1 -33.5
v 3.50920105 0.4254226685 -33.49605942
v 4 5.59135437 -33.5
v 4.8021698 2 -33.5
v 4.956916809 2.48979187 -33.47492599
v -0.7844009399 5.997436523 -33.41967773
v 1.37336731 6.002609253 -33.41280365
v -3.5 1.000007629 -33.39946365
v -1.626739502 6.002365112 -33.39141464
v 1.999992371 6 -33.39490128
v -1.007354736 -0.4347763062 -33.47644043
v 2.5 6 -33.38256454
v -2.5 7.629394531E-6 -33.3802948
v -2.5 6 -33.34155273
v 5 5 -33.33488846
v 2.5 -0.5 -33.29846954
v 4.5 5.5 -33.29837036
v -3.5 5.5 -33.2975769
v 5 2 -33.27648544
v 3.5 6 -33.2620697
v -3 6 -33.25537109
v -1.5 -0.5 -33.22939301
v 5.5 4 -33.22335052
v 5.307655334 3.516983032 -33.42193222
v -4 1.5 -33.2092247
v -3.5 0.5 -33.19831467
v 4.5 1 -33.19200134
v 5.5 4.5 -33.16236877
v -3 7.629394531E-6 -33.13970947
v -4.5 3 -33.12926483
v 5.072647095 3.000274658 -33.57027435
v -4 5 -33.10466003
v -4.5 3.5 -33.09327698
v -4.5 2.5 -33.08841705
v -1.83127594 6.501785278 -33.06991196
v -0.2088165283 6.500228882 -33.07764053
v 0.9492340088 6.496856689 -33.06345367
v -2.5 6.5 -33.03385162
v 4.012123108 6.020019531 -33.00157928
v -4.56098175 2.5 -33
v 5.486099243 4.994277954 -32.99722672
v 2 6.4349823 -33
v 3.994972229 0.3001403809 -33.00580978
v -2.524940491 6.525726318 -33.00467682
v 4.776489258 1 -33
v 3.503211975 -0.014503479 -33.00197601
v 2 -0.7933807373 -33
v 1.5 -0.8419036865 -33
v 5 1.298416138 -33
v -4.5 3.822372437 -33
v 1 6.551757812 -33
v 4.988555908 5.497161865 -32.99950409
v 0.5000076294 6.563034058 -33
v 2.5 -0.6397857666 -33
v -3 6.363204956 -33
v -3.488418579 5.958770752 -32.99678421
v 4.5 0.7056274414 -33
v -4.466079712 4 -33
v -1.5 -0.6832427979 -33
v -1.455543518 6.572799683 -32.99933624
v 5.655700684 4.5 -33
v -2 6.560668945 -33
v 0.7434616089 -0.8543014526 -32.99652863
v -3 -0.1514129639 -33
v -4.020820618 5.084869385 -32.99868393
v 3 6.361785889 -33
v -2.004356384 -0.4932174683 -32.99830627
v 2.5 6.395584106 -33
v 5.697357178 3.5 -33
v 5.279144287 2 -33
v -3.5 0.1727752686 -33
v -4.55582428 3.5 -33
v -4.582374573 3 -33
v 5.622406006 3 -33
v -3.27772522 7.629394531E-6 -33
v 0 6.571609497 -33
v -0.5 6.576004028 -33
v -1 -0.769821167 -33
v -4.323059082 4.5 -33
v 5.119804382 1.499771118 -32.99748611
v -3.793869019 0.5 -33
v 3.5 6.251647949 -33
v -0.5 -0.8258361816 -33
v -2.5 -0.3285980225 -33
v 2.979545593 -0.4075546265 -32.99640274
v -4.437225342 2 -33
v -4.212463379 1.5 -33
v -4.5 2.220123291 -33
v 5.703125 4 -33
v 1.509124756 6.51550293 -33.00391388
v -4.009925842 0.9207992554 -33.00610733
v 4.269607544 0.5 -33
v -3.791816711 5.5 -33
v 4.5 5.786727905 -33
v 5.465812683 2.494628906 -32.94647598
v 3 -0.5 -32.90699005
v 4.500007629 0.5000076294 -32.88889313
v 5 1 -32.85163879
v -2.5 -0.5 -32.83066559
v 4 7.629394531E-6 -32.82347107
v 5.5 2 -32.76766968
v 3.5 -0.5 -32.74163055
v 0.03984832764 -0.8666000366 -32.96473694
v -0.5 -1 -32.71853638
v 2 -1 -32.68881226
v -1 -1 -32.68495178
v 5 0.5 -32.67071533
v -3 6.5 -32.67042923
v 4.5 7.629394531E-6 -32.67026138
v -1.5 -1 -32.64250565
v 2.5 -1 -32.61388397
v 5.5 1.5 -32.59827805
v 4 -0.5 -32.5845108
v -2 -1 -32.56336594
v 3 -1 -32.5434761
v -3.583343506 6 -32.5
v -2 6.724212646 -32.5
v -1.5 6.774353027 -32.5
v 5.667694092 5 -32.5
v 3.5 6.320739746 -32.5
v -1.5 -1.102340698 -32.5
v -2.5 -0.8992538452 -32.5
v 5.855316162 2.5 -32.5
v 5.920501709 4 -32.5
v 2 6.540359497 -32.5
v -0.7673187256 -1.125450134 -32.50061798
v 5.940414429 3.5 -32.5
v 2 -1.115119934 -32.5
v 5.840866089 4.5 -32.5
v 4.020317078 -0.6095275879 -32.5021553
v -2.210662842 -1 -32.5
v 1.532966614 -1.126655579 -32.50259018
v 5.5 5.204772949 -32.5
v 5.741645813 2 -32.5
v -2 -1.052154541 -32.5
v 5.182731628 5.5 -32.5
v -3.870506287 0.5 -32.5
v -3.005065918 -0.5348510742 -32.50010681
v 2.5 -1.083786011 -32.5
v -4.018371582 5.005020142 -32.49328232
v -4 0.7130737305 -32.5
v 1.5 6.662109375 -32.5
v -2.5 6.678497314 -32.5
v 5.923706055 3 -32.5
v 1 6.716339111 -32.5
v -3.018882751 6.542098999 -32.49868774
v -4.374015808 4 -32.5
v -4.24294281 4.5 -32.5
v 2.512825012 6.468338013 -32.48292542
v -3.037994385 -0.5 -32.5
v 5.212715149 0.5 -32.5
v -3.808189392 5.5 -32.5
v 4.5 5.830963135 -32.5
v -4.134429932 1 -32.5
v 5 5.608963013 -32.5
v 4.111785889 6.013656616 -32.49588013
v -4.578224182 2.989776611 -32.49397278
v 0.7848968506 -1.129798889 -32.50516129
v -3.495697021 0.003715515137 -32.49990082
v 5 0.1259307861 -32.5
v 4.5 -0.2783660889 -32.5
v 0.5000076294 6.746551514 -32.5
v 3.172958374 -1 -32.5
v -4.517593384 3.497253418 -32.4989624
v 3 -1.037460327 -32.5
v 3.5 -0.8925933838 -32.5
v 5.394546509 1 -32.5
v 5.52684021 1.347770691 -32.50284195
v 0 6.789794922 -32.5
v -3.5 6.105682373 -32.5
v -4.358688354 1.5 -32.5
v -0.5 6.812347412 -32.5
v 4.881774902 7.629394531E-6 -32.5
v -1 6.807739258 -32.5
v -4.52507782 1.988441467 -32.50092316
v -4.581848145 2.516311646 -32.49557114
v 5 7.629394531E-6 -32.35828781
v -4 1 -32.28687668
v 3.5 -1 -32.2853241
v -3 6.5 -32.28352356
v 4.5 -0.5 -32.27937317
v 5.5 5 -32.22748566
v -2.5 -1 -32.20720291
v -3.489875793 5.984512329 -32.01461792
v -3.426185608 0.5215682983 -31.99316406
v 2.999847412 6.427124023 -32.50334167
v 4 -0.9444198608 -32
v 5.830444336 3.5 -32
v 5.768585205 4 -32
v 4.5 -0.7213821411 -32
v 5.380447388 5 -32
v 5 -0.2367248535 -32
v 5.133880615 7.629394531E-6 -32
v 0.9149703979 -1.229408264 -32.00376892
v 3.500045776 6.413909912 -31.99934006
v -4.191261292 4 -32
v 5.265075684 0.5 -32
v -0.5 6.949966431 -32
v -1.5 6.829162598 -32
v 2 6.603805542 -32
v -1.5 -1.222976685 -32
v -2 -1.184829712 -32
v -4.237075806 3.5 -32
v -0.888458252 -1.231941223 -31.99142075
v -3.772384644 1 -32
v 5.350410461 1 -32
v -2.5 -1.050514221 -32
v -1 6.931518555 -32
v -3 6.413635254 -32
v 1.5 6.700531006 -32
v 1 6.75 -32
v 4.768302917 -0.5 -32
v 3 -1.168777466 -32
v 5.830444336 3 -32
v 3.5 -1.086006165 -32
v 2.5 -1.200195312 -32
v -4.248413086 3 -32
v -3.0443573 -0.5000305176 -32.00052261
v -2.771080017 6.508834839 -31.98711014
v 2 -1.213798523 -32
v 5.024185181 5.520248413 -31.997715
v 5.577507019 4.506011963 -31.99610901
v -4.127731323 4.5 -32
v -3.224243164 7.629394531E-6 -32
v 1.5 -1.224884033 -32
v 4 6.18862915 -32
v -3 -0.5742797852 -32
v 0 6.896194458 -32
v -4.211967468 1.997764587 -32.00125504
v -4.197303772 2.6459198 -31.93357086
v -2.589103699 -0.9999771118 -32.00082016
v -4.078697205 1.489189148 -31.9889183
v 5.677825928 2 -32
v -3.97328186 4.994308472 -31.99962616
v -3.738113403 5.5 -32
v 2.5 6.546096802 -32
v 4.486763 5.89994812 -31.9997673
v -2.5 6.59753418 -32
v 5.783714294 2.5 -32
v -2 6.695220947 -32
v 3 6.512786865 -32
v 5.508804321 1.489234924 -32.00032806
v 4.5 6 -31.81379318
v 3.831031799 -0.9974594116 -32.00276947
v -3 7.629394531E-6 -31.70130157
v 2.997436523 6.492050171 -31.49858093
v -4 3 -31.65945053
v 5.5 2 -31.65118027
v -3.976005554 4.508926392 -31.5059967
v -3.971603394 3.524261475 -31.50719452
v -3.995559692 4.005126953 -31.50084686
v -2.993667603 0.5024642944 -31.50185394
v 4.612991333 -0.5 -31.5
v -3.89112854 3 -31.5
v -0.9415435791 -1.250267029 -31.49029541
v 5.519035339 4.549514771 -31.49956894
v 5.414779663 2 -31.5
v -3.299201965 1 -31.5
v 4.5 -0.5918731689 -31.5
v 5.771194458 3.5 -31.5
v 5.750762939 3 -31.5
v 4.993003845 5.81451416 -31.50837326
v -3.5 5.67388916 -31.5
v 4 6.353515625 -31.5
v 2 6.583969116 -31.5
v -3 6.085861206 -31.5
v 5.711502075 4 -31.5
v 5.199615479 1.5 -31.5
v -0.5 6.831329346 -31.5
v 0 -1.249053955 -31.5
v 0 6.816619873 -31.5
v 5.150131226 1 -31.5
v 0.5000076294 -1.244812012 -31.5
v -1.5 -1.231277466 -31.5
v -3.764846802 2 -31.5
v -3.119758606 6 -31.5
v -1.5 6.663452148 -31.5
v -1 6.790603638 -31.5
v 2 -1.160552979 -31.5
v 5.391342163 5 -31.5
v 0.5000076294 6.773956299 -31.5
v -3.820068359 2.5 -31.5
v 1.5 -1.206611633 -31.5
v -2.735076904 -0.5007324219 -31.49274826
v -2.5 6.330612183 -31.5
v 5.226959229 5.5 -31.5
v 4 -0.7991638184 -31.5
v 3.5 -0.9186248779 -31.5
v -3.880187988 5 -31.5
v 2.50063324 6.516326904 -31.49923706
v 5.12487793 0.5 -31.5
v -2.272674561 -1 -31.5
v -3.624130249 1.492408752 -31.49326324
v 0.5050582886 6.798446655 -32.00091171
v 4.795051575 6 -31.5
v -2 -1.142700195 -31.5
v 1.5 6.694625854 -31.5
v 5.639556885 2.5 -31.5
v 5.5 2.1690979 -31.5
v 2.5 -1.124725342 -31.5
v 3.5 6.45161438 -31.5
v 1 -1.231750488 -31.5
v -3.630592346 5.5 -31.5
v 4.5 6.193893433 -31.5
v -2.5 -0.8127746582 -31.5
v -2.010719299 6.517211914 -31.50081635
v 5.006607056 -0.004051208496 -31.49876404
v 3.00403595 -1.060768127 -31.5031929
v 4.5 -0.5 -31.36488342
v 3.499992371 6.5 -31.35348892
v -3.5 1.499992371 -31.29590988
v 5 0.5 -31.27036285
v 2.5 -1 -31.25
v 4 6.5 -31.19645309
v 5 1 -31.090065
v 4.503250122 6.540161133 -31.00225067
v -2.669189453 7.629394531E-6 -31
v 5.328720093 6 -31
v 4.62815094 6.5 -31
v -0.8896331787 -1.229797363 -30.98992538
v 5.612937927 5.034759521 -31.00249481
v 5.537017822 5.529449463 -30.99889755
v -2.804962158 0.5 -31
v -2.49924469 -0.4997406006 -31.00131226
v -1 6.71295166 -31
v -3.035675049 0.9574813843 -30.99817657
v 5.5 5.635253906 -31
v -3.336166382 1.5 -31
v -1.5 -1.185791016 -31
v 5.11353302 1.5 -31
v -1.5 6.658874512 -31
v 5 1.125762939 -31
v -2 6.592971802 -31
v 5.508346558 2.379379272 -30.9960556
v 5.756378174 3 -31
v -2.009178162 -1.009941101 -30.99689102
v 0.5000076294 -1.205566406 -31
v 0 -1.226303101 -31
v 5 6.328720093 -31
v 5.804519653 4 -31
v 5.712097168 4.5 -31
v 3 -0.8343200684 -31
v 5.824142456 3.5 -31
v 2.5 6.62197876 -31
v 5.339935303 2 -31
v -3 6.144210815 -31
v -3.5 5.77746582 -31
v -3.226051331 6 -31
v -3.980316162 4 -31
v 1 -1.149841309 -31
v -3.914779663 3.5 -31
v -3.980728149 4.5 -31
v 0.5000076294 6.726013184 -31
v 1.5 6.694519043 -31
v 2 6.647567749 -31
v 2.002861023 -0.9391403198 -31.00476074
v 2.5 -0.8752746582 -31
v 4.14995575 -0.5 -31
v -3.772033691 3 -31
v 4 6.589828491 -31
v -3.925559998 5 -31
v 1 6.717071533 -31
v -3.625 2.5 -31
v 4.6536026 7.629394531E-6 -31
v 4.845504761 0.5 -31
v 3.5 6.608154297 -31
v -2.323242188 6.5 -31
v -2.5 6.431365967 -31
v 3 6.614761353 -31
v -3.733825684 5.5 -31
v -0.3971862793 6.743240356 -31.01757431
v -3.506355286 1.999565125 -30.99981308
v 4 -0.5925369263 -31
v 3.5 -0.7533569336 -31
v 4.965873718 1 -31
v -2 -1 -30.97127151
v 1.497543335 -1.069564819 -30.99962997
v 4 -0.5 -30.81626129
v 4.49886322 -0.003547668457 -30.78079987
v -2.5 7.629394531E-6 -30.68017578
v 4.5 6.5 -30.67814255
v 1 -1 -30.67556
v -3 6 -30.61034012
v 5.493225098 5.474258423 -30.5015564
v -2 6.5 -30.58706665
v -3.5 5.5 -30.57578659
v -3.430236816 5.5 -30.5
v 5.588241577 5 -30.5
v 4.5 6.45715332 -30.5
v -1.501876831 -1.002334595 -30.49323273
v -2.5 0.1962585449 -30.5
v -2.674858093 0.5 -30.5
v -2 6.460647583 -30.5
v -1.5 -1.007514954 -30.5
v -2 -0.6544494629 -30.5
v -3.78364563 4 -30.5
v 3.733016968 -0.5 -30.5
v -3.331832886 1.5 -30.5
v -3.642288208 2.5 -30.5
v 3 6.504959106 -30.5
v -2.950958252 5.976516724 -30.50341797
v 3.5 6.504959106 -30.5
v -3.025314331 0.9592666626 -30.48428345
v 1 -0.9054260254 -30.5
v 2 -0.7658538818 -30.5
v 1.5 -0.8227996826 -30.5
v 5.763160706 4.5 -30.5
v -3.637802124 5 -30.5
v 4.020744324 6.503082275 -30.49914551
v 0 -1.104049683 -30.5
v -2.5 6.268493652 -30.5
v -2.132713318 -0.5 -30.5
v -1 -1.10118103 -30.5
v -2.385848999 7.629394531E-6 -30.5
v 2.5 -0.7437591553 -30.5
v 5.89743042 4 -30.5
v 5.24029541 6 -30.5
v 4 -0.3025283813 -30.5
v 5 6.24029541 -30.5
v 2 6.514633179 -30.5
v -0.5 -1.116088867 -30.5
v -3.72694397 4.5 -30.5
v -3.719207764 3 -30.5
v 4.293716431 7.629394531E-6 -30.5
v -3.779190063 3.5 -30.5
v 3.5 -0.6272506714 -30.5
v -3.5 5.386962891 -30.5
v 5.915626526 3.5 -30.5
v 0.8276367188 6.537994385 -30.49897766
v 2.5 6.506744385 -30.5
v 5 1.095474243 -30.5
v -3.541290283 1.997741699 -30.48918915
v 5.594314575 2.5 -30.5
v 5.815246582 3 -30.5
v 5.426750183 2 -30.5
v 4.943359375 1 -30.5
v 5.5 2.210479736 -30.5
v 3 -0.720664978 -30.5
v -0.4720993042 6.538543701 -30.50025177
v -3 0.9294662476 -30.5
v -1.563362122 6.506607056 -30.492939
v -1 6.530075073 -30.5
v 5.238449097 1.5 -30.5
v 4.643051147 0.5 -30.5
v 4 6.5 -30.49577332
v 3 6.5 -30.49485397
v 3.5 6.5 -30.49485397
v 2.5 6.5 -30.49303055
v 1.819519043 6.51461792 -30.49062347
v -0.9999923706 6.5 -30.4696312
v -0.3237991333 6.500152588 -30.4607048
v 1.295951843 6.500442505 -30.46540451
v 0.4917449951 -1.040893555 -30.48713303
v 5.5 5 -30.40949249
v -3.5 5 -30.38048172
v 4.999992371 6 -30.37227631
v -1 -1 -30.35708237
v -2.5 6 -30.35289001
v 0 -1 -30.35080719
v -2 -0.5 -30.34941101
v 5.5 2.5 -30.33617401
v -0.5 -1 -30.33451462
v -3 5.5 -30.31481552
v 4.504737854 0.4816055298 -30.32310486
v 4.5 6 -30.29866028
v 3.87538147 6.000488281 -30.28738403
v -1.968727112 5.99760437 -30.29336166
v 2.087257385 6.000946045 -30.28507996
v 5 5.5 -30.28313446
v -0.9065322876 5.99937439 -30.2805748
v 1.337097168 6.000595093 -30.28015137
v -2.5 5.5 -30.25122833
v -3.5 4.5 -30.24669647
v -1.483383179 4.999557495 -30.20066833
v -1 5.5 -30.24423218
v 3.604881287 5.492401123 -30.23865891
v -2 5.5 -30.24045563
v 4.5 5.5 -30.23806763
v 3 5.5 -30.23652267
v -0.3749160767 5.503448486 -30.23356247
v 2.427276611 5.503601074 -30.23287964
v -2.5 0.5 -30.22288513
v -3.5 2 -30.22136307
v 5.5 4.5 -30.21631622
v 3.5 -0.5 -30.20802307
v -1 5 -30.20079803
v 5 5 -30.18965912
v -3 5 -30.18908691
v 3.5 5 -30.17864609
v -2 5 -30.16082001
v -0.5 5 -30.16054535
v 4 5 -30.15527725
v 3 5 -30.15522766
v -2.5 5 -30.14341736
v 4.5 5 -30.1427002
v -0.01357269287 4.989379883 -30.13414383
v 2.5 5 -30.13607025
v 0.4907836914 4.995758057 -30.12952042
v 1.946609497 4.999053955 -30.13009644
v 4 7.629394531E-6 -30.0980835
v 5 1.5 -30.06245422
v -3.5 4 -30.05521774
v 2.5 -0.5402069092 -30
v -1.999221802 4.502243042 -29.9389801
v 0.5000076294 -0.6322021484 -30
v -2.31288147 0.5 -30
v -2.514167786 4.493881226 -29.89274979
v -1.999824524 0.005569458008 -30.00000381
v -3.507789612 3.534667969 -29.97222137
v -0.4942245483 4.516265869 -29.94229889
v -3.254058838 1.5 -30
v -3.449440002 2 -30
v -2.5 0.6799316406 -30
v -1.00138092 4.500137329 -30.04908752
v 3.880187988 7.629394531E-6 -30
v 3.497596741 4.50869751 -29.9848938
v -2.875656128 1 -30
v 5.51309967 3.999954224 -29.98891449
v 1.5 -0.5575408936 -30
v 2 -0.5444335938 -30
v 3.5 -0.3280639648 -30
v 5.110908508 4.5 -30
v -3 1.140129089 -30
v 5.006896973 4.514587402 -29.95998001
v 4.204833984 0.5 -30
v 1 -0.5832672119 -30
v -3.005409241 4.499740601 -29.96102142
v 4.491821289 4.493835449 -29.89133835
v -3.42616272 4 -30
v 3.993850708 4.497833252 -29.92337036
v 5.597846985 3.5 -30
v 4 0.1494903564 -30
v 4.967178345 1.527938843 -30.00372696
v 5.500221252 2.999084473 -29.99982452
v -3.539642334 3 -30
v -1.501739502 4.501037598 -30.04899216
v 3 4.669921875 -30
v -1 -0.6429138184 -30
v 4.582481384 1.001853943 -30.00065231
v 2.5 4.743896484 -30
v 5.233940125 2.5 -30
v -0.3425979614 -0.6741409302 -30.00406265
v -3.536888123 3.5 -30
v 5.121170044 2 -30
v -1.501449585 -0.5028762817 -29.99679565
v 3.008598328 -0.5094909668 -29.99068832
v -3.516418457 2.482269287 -29.99350357
v -3.5 3 -29.95996857
v 2.5 -0.5 -29.95993423
v 4.5 0.9999923706 -29.94630432
v 1.718841553 -0.499168396 -29.95171738
v 1 -0.5 -29.92777634
v 5.5 3.5 -29.92573166
v 5 2 -29.91066742
v 3 4.5 -29.91062927
v 0.5000076294 -0.5 -29.89949799
v -0.9999923706 -0.5 -29.89881516
v -0.3014831543 -0.5031890869 -29.88350677
v 0 4.5 -29.87605667
v 4 0.5 -29.87013626
v 2.5 4.5 -29.864254
v 0.5111236572 4.497695923 -29.86204147
v 1.5 4.5 -29.86250305
v 5 2.5 -29.85784149
v 2 4.5 -29.85565567
v 3.5 7.629394531E-6 -29.83322906
v -3 4 -29.81886292
v -1.5 4 -29.81571579
v 5 4 -29.8123436
v -0.9992141724 3.992034912 -29.80598068
v 4.5 1.500007629 -29.80280304
v 5 3 -29.80091095
v -1.5 7.629394531E-6 -29.79987335
v -3 1.5 -29.7830925
v -2 4 -29.7806282
v 5 3.5 -29.78061676
v 4 4 -29.78025436
v -2 0.5 -29.77773285
v 4.5 4 -29.77727509
v -3 3.5 -29.77346039
v -2.5 4 -29.77302551
v 3.5 4 -29.77275848
v 3 7.629394531E-6 -29.7718277
v 2.5 -7.629394531E-6 -29.76068115
v 4.5 2 -29.75818253
v 1.122268677 -0.001914978027 -29.75678635
v 4 1 -29.75579453
v -0.9449691772 -0.04779815674 -29.76457977
v 0.3851623535 -0.003746032715 -29.75234604
v 4.5 3.5 -29.74770355
v 4.5 2.5 -29.74695587
v 4.5 3 -29.74172211
v -3 3 -29.74142456
v 3.5 0.5 -29.7335434
v -2.5 1 -29.73176193
v 4 3.5 -29.71553802
v -2.5 3.5 -29.71324158
v 0 4 -29.70970535
v 1.5 4 -29.70296478
v 3 4 -29.70114899
v -3 2.5 -29.69525146
v 0.5441741943 4.009429932 -29.69859314
v -3 2 -29.6892128
v 2 4 -29.67325974
v 4 1.5 -29.67222595
v -2 3.5 -29.66684341
v 2.5 4 -29.66427612
v 3 0.5 -29.66297531
v 4 3 -29.66172028
v -1.5 0.5 -29.65585327
v -1.5 3.5 -29.64491272
v 4 2 -29.63722992
v 4 2.5 -29.63611221
v 2.5 0.5 -29.63607025
v 1.772026062 0.5020523071 -29.62757111
v 1 0.5 -29.62011719
v 0.3224945068 0.4970703125 -29.6186142
v -1 3.5 -29.61418152
v 3.50163269 3.496505737 -29.61314392
v 3.5 1 -29.61078262
v -2.498077393 2.998764038 -29.60512924
v -0.5 3.5 -29.5247879
v 1 3.659210205 -29.5
v 2.998672485 3.497573853 -29.44759369
v -2.689430237 2 -29.5
v 1.5 3.607055664 -29.5
v 3.730117798 2 -29.5
v 2 3.676071167 -29.5
v -0.9570770264 0.5075454712 -29.62754059
v -0.5 0.715927124 -29.5
v 1 0.6822357178 -29.5
v 1.5 0.715927124 -29.5
v 2.481742859 3.493637085 -29.38452148
v 2 0.7409515381 -29.5
v -1.996292114 3.014984131 -29.44973373
v -0.495513916 3.473007202 -29.5022316
v -1 3.330200195 -29.5
v -1.5 3.239303589 -29.5
v 0.5000076294 0.6712036133 -29.5
v -2.004890442 0.9901123047 -29.47522354
v -2.49811554 2.497619629 -29.44440842
v 0.5000076294 3.686355591 -29.5
v 0 3.636962891 -29.5
v 0 0.6822357178 -29.5
v -2.512779236 1.492591858 -29.46958923
v 3.496391296 1.500495911 -29.44507599
v 2.995368958 0.9962539673 -29.4460907
v 3.507514954 2.999679565 -29.44827271
v -2.5 2 -29.39419556
v 2 3.5 -29.38656616
v -1.527282715 0.9885025024 -29.38969803
v 3.497810364 2.501281738 -29.38065338
v 3.5 2 -29.38105774
v 1.5 3.5 -29.38010406
v 2.479705811 0.997215271 -29.37862015
v -1.5 3 -29.36259842
v 2 1 -29.3551445
v -1 1 -29.3551445
v -2 1.5 -29.31271362
v 3 3 -29.30998611
v -2 2.5 -29.30998611
v 3 1.5 -29.30998611
v -0.5 1 -29.30729294
v 1.5 1 -29.30729294
v -2 2 -29.27820969
v 3 2 -29.2736969
v 3 2.5 -29.2736969
v -1.5 1.5 -29.26584625
v 2.5 1.5 -29.26542664
v 2.5 3 -29.25824738
v -1.5 2.5 -29.24806976
v -1 3 -29.23379898
v -1.5 2 -29.23072815
v 2.5 2 -29.22977448
v 2.5 2.5 -29.22600174
v 0 1 -29.21006775
v 1 1 -29.21006775
v 2 1.5 -29.20500946
v -1 1.5 -29.20500946
v 0.5000076294 1 -29.16284561
v 2 3 -29.15356445
v 2 2 -29.09940338
v -1 2 -29.09940338
v -1 2.5 -29.08447266
v 2 2.5 -29.07025909
v 1.532905579 1.5 -29
v -0.9100799561 2.5 -29
v -0.7368621826 3 -29
v -0.8727111816 2 -29
v 1.004959106 3.536621094 -29.00039291
v 0 1.18119812 -29
v 0.5000076294 3.618591309 -29
v 0.5000076294 1.117248535 -29
v -0.5 3.215759277 -29
v 1 1.18119812 -29
v 1.922065735 2.5 -29
v 1.872711182 2 -29
v -0.05102539062 3.5 -29
v 0 3.529754639 -29
v 1.787750244 3 -29
v 1.5 3.252258301 -29
v 1.504844666 1.477882385 -28.99837112
v -0.5264282227 1.496162415 -28.99795151
v 0.004547119141 3.451095581 -28.50128555
v -0.504486084 3.025344849 -28.47154617
v -0.3550109863 1.5 -28.5
v 0 1.236465454 -28.5
v 1 1.236465454 -28.5
v -0.5342636108 3 -28.5
v -0.7142562866 2.5 -28.5
v -0.5 1.676422119 -28.5
v 1.5 1.676422119 -28.5
v 1.355010986 1.5 -28.5
v 1.715744019 2.5 -28.5
v 0.9928817749 3.453292847 -28.49701691
v 0.5000076294 1.144493103 -28.5
v 1.502334595 3.022262573 -28.45178604
v 1.679542542 2 -28.5
v 1.539794922 3 -28.5
v -0.6795425415 2 -28.5
v 0.4963302612 3.558441162 -28.49732208
v 0.5000076294 1 -28.18500137
v -0.6445007324 2.5 -28
v -0.5160064697 1.488304138 -28.00164032
v 1.516372681 1.492141724 -28.0112915
v 1.644493103 2.5 -28
v -0.5 2.760101318 -28
v 1.686859131 2 -28
v 1.5 2.760101318 -28
v 0.5000076294 3.328125 -28
v 0.004318237305 1.019187927 -27.98684311
v 0.5000076294 0.914932251 -28
v 1.302986145 3 -28
v 0 3.231552124 -28
v -0.6868591309 2 -28
v -0.302986145 3 -28
v 1 3.231552124 -28
v 0.9961929321 1.019958496 -27.98948669
v 0 0.8866424561 -27.5
v 1.606109619 2.5 -27.5
v 1.702102661 2 -27.5
v 1.606109619 1.5 -27.5
v -0.6061096191 1.5 -27.5
v 1 0.8866424561 -27.5
v 0.5000076294 0.790184021 -27.5
v -0.1594238281 1 -27.5
v -0.7021026611 2 -27.5
v -0.5 1.344558716 -27.5
v 1.159423828 1 -27.5
v 1.5 1.344558716 -27.5
v 1.159423828 3 -27.5
v 1.5 2.655441284 -27.5
v -0.1594238281 3 -27.5
v -0.6061096191 2.5 -27.5
v -0.5 2.655441284 -27.5
v 0.5000076294 3.20980835 -27.5
v 0 3.113357544 -27.5
v 1 3.113357544 -27.5
v 1.000572205 3.003112793 -26.99690628
v 1.540878296 2.5 -27
v 1.517173767 2.520629883 -26.94136047
v 0.5000076294 0.6954956055 -27
v 0 0.7909545898 -27
v 0.5000076294 3.110870361 -27
v 1 0.7909545898 -27
v -0.001075744629 3.003662109 -26.99972916
v -0.6912841797 2 -27
v 1.69128418 2 -27
v 1.639480591 1.5 -27
v 1.5 1.260055542 -27
v 1.277984619 1 -27
v -0.5408782959 2.5 -27
v -0.6394805908 1.5 -27
v -0.5 1.260055542 -27
v -0.5091094971 2.522598267 -26.91011047
v -0.2779846191 1 -27
v 0.4971923828 2.950485229 -26.49543381
v 0 0.657409668 -26.5
v 1.5 1.125213623 -26.5
v -0.4154815674 1 -26.5
v -0.5 1.125213623 -26.5
v 1.415481567 1 -26.5
v 1.5 2.374786377 -26.5
v 1 0.657409668 -26.5
v 0.5000076294 0.5500030518 -26.5
v -0.6662750244 1.5 -26.5
v 1.415481567 2.5 -26.5
v 1.666275024 1.5 -26.5
v 1.666275024 2 -26.5
v 1 2.842590332 -26.5
v -0.5 2.374786377 -26.5
v -0.4154815674 2.5 -26.5
v 0 2.842590332 -26.5
v -0.6662750244 2 -26.5
v 1.666275024 2 -26
v 0.5000076294 2.949996948 -26
v 1.666275024 1.5 -26
v 1 2.842590332 -26
v -0.4154815674 2.5 -26
v -0.5 1.125213623 -26
v -0.5 2.374786377 -26
v 0 0.657409668 -26
v 1.5 2.374786377 -26
v 0 2.842590332 -26
v 1 0.657409668 -26
v -0.6662750244 2 -26
v -0.6662750244 1.5 -26
v 1.5 1.125213623 -26
v -0.4154815674 1 -26
v 1.415481567 2.5 -26
v 1.415481567 1 -26
v 0.4974060059 0.5498962402 -26.00576782
v 0.5000076294 0.3891296387 -25.5
v 1.639480591 2 -25.5
v -0.5408782959 1 -25.5
v 1.5 2.239944458 -25.5
v 1.69128418 1.5 -25.5
v -0.5 2.239944458 -25.5
v 1.540878296 1 -25.5
v 1.277984619 2.5 -25.5
v -0.001007080078 0.4964447021 -25.50093079
v -0.5176544189 0.975769043 -25.54544449
v -0.6912841797 1.5 -25.5
v -0.2779846191 2.5 -25.5
v 0.5000076294 2.804504395 -25.5
v -0.6394805908 2 -25.5
v 1.000679016 0.4963531494 -25.50099945
v 1.512001038 0.9722061157 -25.5609169
v 0 2.70904541 -25.5
v 1 2.70904541 -25.5
v 1.190483093 2.5 -25
v 1.621406555 2 -25
v 1.5 2.180084229 -25
v 1.600570679 1 -25
v 1.706344604 1.5 -25
v -0.6005783081 1 -25
v 1.133682251 0.5 -25
v 1 0.4064025879 -25
v 1.5 0.8584594727 -25
v -0.7063446045 1.5 -25
v -0.1904830933 2.5 -25
v 0 2.635650635 -25
v 0.5000076294 2.72984314 -25
v 1 2.635650635 -25
v 0.5000076294 0.3095779419 -25
v 0 0.4064025879 -25
v -0.6214065552 2 -25
v -0.5 0.8584594727 -25
v -0.1336898804 0.5 -25
v -0.5 2.180084229 -25
v 1.190483093 0.5 -24.5
v -0.1336898804 2.5 -24.5
v 1.133682251 2.5 -24.5
v 1.706344604 1.5 -24.5
v -0.5 2.141540527 -24.5
v 1.600570679 2 -24.5
v 1 0.3643493652 -24.5
v 1 2.593597412 -24.5
v -0.7063446045 1.5 -24.5
v -0.6005783081 2 -24.5
v 0 2.593597412 -24.5
v 1.621406555 1 -24.5
v 0.5000076294 0.2701568604 -24.5
v -0.1904830933 0.5 -24.5
v 0 0.3643493652 -24.5
v 1.5 0.8199157715 -24.5
v -0.6214065552 1 -24.5
v 1.5 2.141540527 -24.5
v -0.5 0.8199157715 -24.5
v 0.5000076294 2.690429688 -24.5
v 0.004264831543 2.479614258 -24.01039124
v -0.6445007324 1 -24
v 1 0.268447876 -24
v -0.5161209106 2.011962891 -24.00064087
v 0.5000076294 2.58505249 -24
v 0.9960861206 2.478942871 -24.00775528
v 0.5000076294 0.171875 -24
v 1.644493103 1 -24
v 0 0.268447876 -24
v -0.302986145 0.5 -24
v -0.5 0.739906311 -24
v 1.686859131 1.5 -24
v -0.6868591309 1.5 -24
v 1.302986145 0.5 -24
v 1.5 0.739906311 -24
v 1.516799927 2.008163452 -23.99292374
v 0.5000076294 2.5 -23.81743622
v 0.5000076294 7.629394531E-6 -23.68269348
v 0 2.255386353 -23.5
v 1 2.255386353 -23.5
v 1.543487549 0.5 -23.5
v 1.664421082 1.5 -23.5
v 1.5 1.795394897 -23.5
v 1.332305908 2 -23.5
v -0.3323059082 2 -23.5
v 1.706314087 1 -23.5
v -0.7063140869 1 -23.5
v -0.5020523071 0.4686660767 -23.54869461
v -0.5434875488 0.5 -23.5
v -0.5 1.795394897 -23.5
v 0.5000076294 -0.1044921875 -23.5
v 0.5000076294 2.352905273 -23.5
v 0.0005035400391 0.002281188965 -23.49770355
v 1.504501343 0.4940795898 -23.58952713
v -0.6644210815 1.5 -23.5
v 0.9995269775 0.002044677734 -23.49732208
v 0 2.258010864 -23
v 0 -0.2141342163 -23
v 0.5000076294 2.352905273 -23
v 1.720779419 0.5 -23
v -0.3527984619 2 -23
v -0.5 1.847579956 -23
v 1 -0.2141342163 -23
v -0.2979736328 7.629394531E-6 -23
v 0.5000076294 -0.3088378906 -23
v 1.5 0.1974639893 -23
v 1.824172974 1 -23
v 1.7397995 1.5 -23
v -0.7397994995 1.5 -23
v 1 2.258010864 -23
v 1.352798462 2 -23
v 1.297973633 7.629394531E-6 -23
v -0.7207794189 0.5 -23
v 1.5 1.847579956 -23
v -0.5 0.1974639893 -23
v -0.824180603 1 -23
v 1.5 7.629394531E-6 -22.70864105
v -0.5577392578 2.021270752 -22.50761795
v 1.526252747 2.053237915 -22.50743866
v -1.077224731 1.005783081 -22.50722504
v 2 1 -22.65248871
v 0.5000076294 2.5 -22.63721848
v 0.9943389893 2.450210571 -22.49697495
v 0.998550415 -0.4996337891 -22.49962616
v 0.001457214355 -0.4996337891 -22.49962616
v 0.5000076294 2.557678223 -22.5
v 1.6222229 7.629394531E-6 -22.5
v 1.5 -0.1234970093 -22.5
v 0.005805969238 2.449447632 -22.50267029
v 2.079452515 1 -22.5
v -0.5 2.076675415 -22.5
v 1.576972961 2 -22.5
v 1.959571838 1.494522095 -22.50085068
v -0.5222244263 -0.07747650146 -22.55261612
v -0.6222229004 7.629394531E-6 -22.5
v -0.9594955444 1.495361328 -22.49767685
v 0.4999923706 -0.6062011719 -22.49577332
v 2.000106812 1.500076294 -22.00047684
v -1.000099182 1.50012207 -22.00039673
v 0.5000076294 -0.8088378906 -22.00000381
v 1.5 -0.3397521973 -22.00000381
v -1.165885925 1 -22.00000381
v 1 -0.7155456543 -22.00000381
v 1.821235657 7.629394531E-6 -22.00000381
v 1.988815308 0.503616333 -22.49271774
v -0.3089294434 -0.5 -22.00000381
v 1.572494507 2 -22.00000381
v -0.5 -0.3397521973 -22.00000381
v 0.5059127808 2.544921875 -21.99863815
v -0.5724945068 2 -22.00000381
v -0.8212356567 7.629394531E-6 -22.00000381
v -1.12525177 0.5 -22.00000381
v 0.494178772 2.546417236 -21.99918747
v 0 2.431152344 -22.00000381
v 1 2.431152344 -22.00000381
v 0 -0.7155456543 -22.00000381
v -0.4997329712 2.070571899 -22.0010643
v -0.988571167 0.5038375854 -22.49380493
v 2.165885925 1 -22.00000381
v 1.510383606 2.061218262 -21.99807358
v 2.125244141 0.5 -22.00000381
v 1.470741272 -0.4865264893 -21.75520325
v -1.165985107 0.5 -21.5
v 0.5000076294 2.210876465 -21.5
v 0.9941482544 -0.9499740601 -21.50105667
v 1.5 1.800415039 -21.5
v 1 2.120803833 -21.5
v 0 -0.9461517334 -21.5
v 1.582138062 -0.5 -21.5
v 2 1.23236084 -21.5
v 2.165985107 0.5 -21.5
v 2.124694824 1 -21.5
v 1.809783936 1.5 -21.5
v 1.5 -0.5803756714 -21.5
v -0.5145339966 -0.567741394 -21.50358582
v -0.5821380615 -0.5 -21.5
v 0.4929046631 -1.058227539 -21.50117493
v 1.191123962 2 -21.5
v -1 1.23236084 -21.5
v -0.002861022949 2.123565674 -21.50476837
v -0.8097839355 1.5 -21.5
v -0.5 1.800415039 -21.5
v -1.124694824 1 -21.5
v -1.00038147 -0.0007934570312 -21.5005722
v 2.000556946 -0.0005111694336 -21.50058746
v 1 2 -21.33372498
v 0 2 -21.33372498
v 0.5000076294 2 -21.22106171
v -0.99559021 0.9993286133 -21.00799561
v -0.9959106445 0.002815246582 -21.0030632
v 1.623443604 -0.5 -21
v 0.00121307373 -0.9993743896 -21
v 1.994384766 0.0005111694336 -20.99990082
v 0 1.80015564 -21
v 1.5 -0.6242294312 -21
v 1.995613098 0.9994430542 -21.00830841
v 2.100234985 0.5 -21
v -0.5073852539 1.548408508 -20.96237183
v 0.5000076294 -1.104484558 -21
v -1.100234985 0.5 -21
v 0.5000076294 1.858306885 -21
v -0.5 -0.6242294312 -21
v 1 1.80015564 -21
v -0.5815124512 1.5 -21
v 1.5 1.568832397 -21
v -0.6234359741 -0.5 -21
v 1.544708252 1.50630188 -20.93959045
v 0.9988021851 -0.9993972778 -20.99968719
v -0.9272232056 0.5020217896 -20.50255585
v 2 0.5 -20.70007324
v 1.926223755 0.5 -20.5
v 1.000778198 -1.000549316 -20.5
v -0.0009155273438 -1.000564575 -20.49992371
v 1.749908447 1 -20.5
v 1 1.644882202 -20.5
v -0.6241607666 -0.5 -20.5
v 0.5000076294 -1.109375 -20.5
v -0.7499313354 1 -20.5
v 1.249084473 1.5 -20.5
v 1.90397644 7.629394531E-6 -20.5
v 1.5 1.298126221 -20.5
v -0.5 -0.6358947754 -20.5
v 1.624160767 -0.5 -20.5
v 0.5000076294 1.719512939 -20.5
v -0.9050979614 0.001281738281 -20.5016098
v 0 1.644882202 -20.5
v -0.2490844727 1.5 -20.5
v -0.5 1.298126221 -20.5
v 1.5 -0.6358947754 -20.5
v 2 7.629394531E-6 -20.17230988
v 0.00691986084 1.475692749 -20.0096817
v 0.9938964844 1.475273132 -20.00959778
v -0.6483001709 -1 -20
v 1.648292542 -1 -20
v 1.505020142 1.070999146 -19.987854
v 1.576217651 1 -20
v -0.5762023926 1 -20
v -0.5076599121 1.067619324 -19.98649979
v 1.002502441 -1.475189209 -20.07162476
v 1.499465942 -1.080001831 -20.07156754
v -1 0.1667480469 -20
v 1.974304199 -0.5 -20
v 0.5000076294 1.572769165 -20
v -0.8972015381 0.5 -20
v -1.045791626 7.629394531E-6 -20
v -0.5030975342 -1.142967224 -20.01174927
v 1.897209167 0.5 -20
v -0.003265380859 -1.514228821 -20.03581238
v -0.9852142334 -0.5212783813 -19.9639473
v 0.4996871948 -1.642059326 -20.01675797
v 2 0.1667480469 -20
v 2.045791626 7.629394531E-6 -20
v 1.998565674 -0.5012207031 -19.93823242
v 0.5000076294 1.5 -19.89646912
v -0.5 -1.5 -19.70552826
v 0.4975814819 -2.149673462 -19.55897141
v 2.040733337 -1 -19.5
v 1.152328491 -2 -19.5
v -0.5 0.6469726562 -19.5
v 1.5 0.648651123 -19.5
v 1.63949585 0.5 -19.5
v 2.005256653 0.007255554199 -19.49698639
v 2.002235413 -1.015144348 -19.5535202
v 0.5000076294 1.133079529 -19.5
v -0.5 -1.720153809 -19.5
v 1.71648407 -1.5 -19.5
v 1.001304626 1.018974304 -19.49282837
v 1.000038147 -2.070091248 -19.53635788
v -1.110183716 -0.5 -19.5
v -1.011672974 -1.011962891 -19.50301743
v -0.0007858276367 1.016143799 -19.49002838
v -0.6375732422 0.5 -19.5
v -0.6994476318 -1.5 -19.5
v 2.122619629 -0.5 -19.5
v -1.002807617 0.003433227539 -19.49918747
v -0.006904602051 -2.084579468 -19.51992798
v 1.505195618 -1.668136597 -19.55654144
v 0.5000076294 1.000007629 -19.39682388
v -0.5 0.5 -19.37746048
v 1.5 0.5 -19.37369919
v 1.5 -2 -19.21120071
v -0.5 -2 -19.18759155
v 0 0.5 -19.18730164
v 1 0.5 -19.18469238
v 0.5000076294 -2.5 -19.17023468
v 0.5000076294 0.5 -19.14791107
v -0.9878158569 -0.6093673706 -19.02059174
v 1 -2.5 -19.07717514
v 0 -2.5 -19.06825638
v 0.5000076294 0.2990875244 -19
v 1.62097168 7.629394531E-6 -19
v -0.6626205444 -2 -19
v -0.961730957 -1.5 -19
v 1.5 0.1015167236 -19
v -1 -1.29990387 -19
v 0 0.2528533936 -19
v -0.5040893555 0.009620666504 -18.96336365
v 0 -2.57208252 -19
v 2.070007324 -1.502746582 -19.00378799
v -0.1026000977 -2.5 -19
v 0.5000076294 -2.675811768 -19
v 1 -2.586982727 -19
v -0.5 -2.190208435 -19
v 1.5 -2.236297607 -19
v 2.140914917 -1 -19
v 2.033210754 -0.5 -19
v 1.133560181 -2.5 -19
v 2.007720947 -0.4761199951 -18.9768486
v -1.044799805 -1 -19
v -0.5657424927 7.629394531E-6 -19
v -0.9450759888 -0.5 -19
v 2 -1.634857178 -19
v 1 0.2660827637 -19
v 1.730575562 -2 -19
v -1 -1.000007629 -18.92236328
v 1.5 7.629394531E-6 -18.90641022
v 0 7.629394531E-6 -18.79966736
v 1 7.629394531E-6 -18.77342987
v 0.5000076294 7.629394531E-6 -18.75683594
v -0.5 -0.5 -18.6730957
v 2 -1 -18.59964371
v 1.5 -2.5 -18.57479477
v 1.502830505 -0.4970855713 -18.49732971
v -0.604598999 -1 -18.5
v 2 -1.196647644 -18.5
v 1.5 -2.588607788 -18.5
v 1.593551636 -2.5 -18.5
v 2.088150024 -1.5 -18.5
v -0.3650360107 -2.5 -18.5
v -0.5055084229 -0.9924240112 -18.44071579
v 0.0007553100586 -0.4950790405 -18.46334076
v -0.7893066406 -1.5 -18.5
v 1.924217224 -1 -18.5
v -0.5 -2.362808228 -18.5
v -0.7078552246 -2 -18.5
v 1.99646759 -1.996040344 -18.50003433
v 0 -2.786224365 -18.5
v 1 -2.882347107 -18.5
v 0.5000076294 -2.930450439 -18.5
v 0.5000076294 -0.3391647339 -18.5
v 1 -0.346786499 -18.5
v 1.499992371 -2.5 -18.46660233
v 2 -1.5 -18.43804169
v 1 -0.5 -18.39640427
v 0.5000076294 -0.5 -18.39330292
v -0.5 -1.999992371 -18.3817215
v 0 -2.5 -18.37688828
v 1 -2.5 -18.3637619
v -0.5 -1.500007629 -18.34584045
v 1.5 -2 -18.34391785
v 0.5000076294 -2.500007629 -18.33921432
v 1.5 -1 -18.32328415
v 0 -1 -18.30587006
v 1.5 -1.5 -18.29423141
v 0 -2 -18.28755951
v 1 -2 -18.2853775
v 1 -1 -18.27532196
v 0.5000076294 -1 -18.27384949
v 0.5000076294 -2 -18.27132416
v 0 -1.5 -18.26757812
v 1 -1.499992371 -18.25871277
v 0.5000076294 -1.5 -18.25375748
f 351 303 297
f 303 351 438
f 439 303 438
f 336 293 297
f 336 297 303
f 303 420 336
f 303 439 420
f 335 296 293
f 335 293 336
f 336 427 335
f 336 420 427
f 335 313 296
f 427 313 335
f 404 417 354
f 404 441 417
f 350 288 354
f 354 434 350
f 354 417 434
f 417 441 495
f 434 417 495
f 349 232 288
f 349 288 350
f 349 434 438
f 349 350 434
f 434 492 438
f 434 495 492
f 349 351 232
f 232 351 235
f 351 297 235
f 297 218 235
f 349 438 351
f 493 439 492
f 492 439 438
f 251 209 218
f 218 297 251
f 251 297 293
f 480 420 493
f 493 420 439
f 493 510 480
f 226 208 209
f 226 209 251
f 251 293 226
f 226 293 296
f 466 427 480
f 480 427 420
f 480 510 513
f 480 513 466
f 253 214 208
f 253 208 226
f 313 321 296
f 321 226 296
f 321 253 226
f 321 313 410
f 410 313 427
f 466 410 427
f 466 459 410
f 466 513 514
f 466 514 459
f 223 214 253
f 253 342 223
f 253 321 342
f 321 411 342
f 321 410 411
f 410 486 411
f 410 459 486
f 459 514 512
f 459 512 486
f 328 295 223
f 342 328 223
f 342 403 328
f 342 411 403
f 486 497 403
f 411 486 403
f 486 512 497
f 334 344 289
f 422 400 344
f 422 344 334
f 422 448 400
f 289 344 354
f 271 289 354
f 354 344 404
f 404 344 400
f 400 448 404
f 448 468 404
f 468 441 404
f 448 556 468
f 271 288 229
f 271 354 288
f 441 468 495
f 468 556 495
f 229 173 210
f 232 173 229
f 229 288 232
f 538 492 556
f 556 492 495
f 556 574 635
f 538 556 635
f 174 155 173
f 218 174 235
f 174 232 235
f 174 173 232
f 545 493 538
f 538 493 492
f 538 626 545
f 538 635 626
f 635 662 626
f 635 695 662
f 695 746 810
f 662 695 810
f 180 150 155
f 180 155 174
f 174 218 180
f 180 218 209
f 517 510 545
f 545 510 493
f 545 622 517
f 545 626 622
f 626 686 622
f 626 662 686
f 662 798 686
f 662 810 798
f 810 811 798
f 195 154 150
f 195 150 180
f 180 209 195
f 195 209 208
f 517 513 510
f 517 614 513
f 517 622 614
f 622 688 614
f 622 686 688
f 686 806 688
f 686 798 806
f 798 811 772
f 798 772 806
f 161 154 195
f 195 208 161
f 161 208 214
f 513 612 514
f 513 614 612
f 614 659 612
f 614 688 659
f 806 772 765
f 659 806 765
f 688 806 659
f 214 204 161
f 214 223 204
f 514 615 512
f 514 612 615
f 612 685 615
f 612 659 685
f 659 765 736
f 659 736 685
f 220 223 255
f 204 223 220
f 223 295 255
f 512 552 497
f 512 624 552
f 512 615 624
f 615 671 624
f 615 685 671
f 685 736 718
f 685 718 671
f 295 328 356
f 295 356 281
f 255 295 281
f 220 255 281
f 356 328 415
f 415 328 403
f 497 415 403
f 497 498 415
f 497 566 498
f 497 552 566
f 552 633 566
f 552 624 633
f 671 690 649
f 633 671 649
f 624 671 633
f 671 718 690
f 356 319 281
f 356 379 319
f 415 379 356
f 379 498 447
f 415 498 379
f 566 526 447
f 566 447 498
f 633 610 526
f 633 526 566
f 633 649 610
f 379 433 319
f 379 447 433
f 490 481 413
f 490 413 401
f 327 338 292
f 338 327 401
f 413 338 401
f 422 338 413
f 413 487 422
f 413 481 487
f 481 508 487
f 292 338 334
f 289 292 334
f 254 292 289
f 334 338 422
f 422 487 448
f 487 508 515
f 487 515 448
f 250 264 194
f 250 254 264
f 254 271 264
f 254 289 271
f 515 521 448
f 521 556 448
f 589 521 515
f 703 666 589
f 194 176 142
f 264 229 194
f 229 210 194
f 210 176 194
f 264 271 229
f 556 521 574
f 521 591 574
f 521 589 591
f 589 661 591
f 589 666 661
f 774 666 786
f 661 666 774
f 786 837 774
f 142 176 173
f 130 142 173
f 176 210 173
f 574 591 635
f 635 591 695
f 695 591 661
f 695 661 746
f 661 775 746
f 661 774 775
f 774 837 866
f 774 866 775
f 130 155 128
f 173 155 130
f 746 775 810
f 866 810 775
f 864 810 866
f 155 150 128
f 811 864 856
f 811 810 864
f 128 154 129
f 150 154 128
f 772 856 843
f 772 811 856
f 129 161 132
f 154 161 129
f 765 772 792
f 830 792 772
f 843 830 772
f 132 161 158
f 161 204 158
f 790 736 792
f 792 736 765
f 792 830 790
f 204 203 158
f 204 220 203
f 751 736 790
f 751 718 736
f 203 220 222
f 220 281 222
f 649 690 650
f 726 650 690
f 718 726 690
f 751 726 718
f 281 319 284
f 222 281 284
f 539 447 526
f 539 526 611
f 611 526 610
f 649 650 610
f 610 650 611
f 650 664 611
f 664 646 611
f 650 726 664
f 319 318 284
f 319 433 409
f 319 409 371
f 318 319 371
f 433 447 409
f 447 472 409
f 472 443 409
f 539 529 472
f 539 472 447
f 611 609 529
f 611 529 539
f 611 646 609
f 470 494 446
f 401 362 385
f 494 490 446
f 490 385 446
f 490 401 385
f 494 568 490
f 568 547 490
f 547 481 490
f 568 587 547
f 327 292 276
f 327 276 347
f 347 362 327
f 327 362 401
f 547 508 481
f 580 547 587
f 587 643 580
f 248 254 201
f 248 276 254
f 276 292 254
f 547 515 508
f 547 586 515
f 547 580 586
f 580 643 654
f 655 580 654
f 586 580 655
f 654 745 655
f 163 194 135
f 254 250 201
f 201 250 163
f 250 194 163
f 589 515 586
f 589 586 703
f 703 586 655
f 745 776 655
f 655 776 703
f 776 780 703
f 780 666 703
f 776 858 780
f 142 135 194
f 127 135 142
f 666 780 786
f 858 908 780
f 780 908 786
f 908 837 786
f 127 130 123
f 142 130 127
f 888 866 908
f 908 866 837
f 908 912 888
f 123 128 122
f 130 128 123
f 904 864 888
f 888 864 866
f 888 912 904
f 884 864 904
f 884 856 864
f 122 129 121
f 128 129 122
f 843 884 860
f 843 856 884
f 121 132 124
f 129 132 121
f 830 860 844
f 830 843 860
f 124 158 131
f 132 158 124
f 790 844 770
f 790 830 844
f 131 158 160
f 158 203 160
f 751 790 757
f 757 790 770
f 203 212 160
f 203 222 212
f 726 757 735
f 726 751 757
f 246 212 222
f 222 284 246
f 246 284 277
f 726 721 664
f 735 721 726
f 284 318 307
f 301 284 307
f 277 284 301
f 318 371 307
f 443 472 482
f 472 548 482
f 472 529 548
f 529 631 548
f 609 631 529
f 609 646 664
f 674 609 664
f 631 609 674
f 664 721 674
f 409 307 371
f 406 307 409
f 409 443 482
f 501 409 482
f 406 409 501
f 398 394 377
f 470 446 394
f 398 470 394
f 465 470 398
f 559 555 494
f 470 559 494
f 465 559 470
f 599 555 559
f 377 394 385
f 362 377 385
f 330 377 362
f 394 446 385
f 494 555 568
f 568 555 587
f 555 599 587
f 599 639 658
f 675 599 658
f 587 599 675
f 658 723 675
f 260 248 205
f 347 276 248
f 260 347 248
f 330 347 260
f 347 330 362
f 587 677 643
f 587 675 677
f 675 723 771
f 675 771 677
f 192 163 136
f 205 248 192
f 248 201 192
f 201 163 192
f 643 677 654
f 677 771 654
f 771 769 654
f 769 745 654
f 771 841 769
f 135 136 163
f 120 136 135
f 745 769 776
f 841 903 769
f 769 903 776
f 903 858 776
f 120 127 110
f 135 127 120
f 858 903 908
f 922 908 903
f 110 123 102
f 127 123 110
f 912 922 928
f 912 908 922
f 102 122 100
f 123 122 102
f 904 928 924
f 904 912 928
f 100 122 98
f 898 884 904
f 924 898 904
f 98 121 99
f 122 121 98
f 898 869 884
f 869 860 884
f 99 124 103
f 121 124 99
f 844 869 838
f 844 860 869
f 103 131 116
f 124 131 103
f 770 838 767
f 770 844 838
f 116 160 141
f 131 160 116
f 757 770 753
f 753 770 767
f 189 141 160
f 160 212 189
f 189 212 206
f 735 753 740
f 735 757 753
f 227 206 212
f 227 212 246
f 246 277 227
f 227 277 272
f 721 740 730
f 721 735 740
f 272 301 298
f 277 301 272
f 482 548 569
f 569 548 630
f 630 548 631
f 630 631 648
f 631 656 648
f 631 674 656
f 730 656 674
f 730 674 721
f 325 298 301
f 325 301 307
f 307 380 325
f 406 380 307
f 406 503 380
f 501 503 406
f 501 482 569
f 503 501 569
f 630 596 569
f 630 648 596
f 398 377 373
f 398 373 384
f 464 398 384
f 464 465 398
f 537 465 464
f 537 559 465
f 592 559 537
f 592 599 559
f 657 653 639
f 599 657 639
f 592 657 599
f 322 330 285
f 322 373 330
f 373 377 330
f 639 653 658
f 653 808 658
f 808 723 658
f 260 205 179
f 242 260 179
f 330 242 285
f 330 260 242
f 808 771 723
f 808 836 771
f 162 179 192
f 136 162 192
f 125 162 136
f 179 205 192
f 836 841 771
f 873 841 836
f 125 120 101
f 136 120 125
f 873 914 841
f 841 914 903
f 101 110 84
f 101 120 110
f 922 914 931
f 922 903 914
f 74 61 67
f 74 67 84
f 84 110 74
f 74 110 102
f 928 931 936
f 928 922 931
f 85 47 61
f 85 61 74
f 74 102 85
f 85 102 100
f 924 936 934
f 924 928 936
f 85 25 47
f 70 25 85
f 85 100 70
f 70 100 98
f 898 934 919
f 898 924 934
f 25 71 26
f 25 70 71
f 70 98 71
f 71 98 99
f 869 898 874
f 874 898 901
f 919 901 898
f 79 50 43
f 26 79 43
f 71 79 26
f 71 99 79
f 79 99 103
f 838 874 831
f 838 869 874
f 79 96 50
f 79 103 96
f 103 116 96
f 767 831 799
f 838 831 767
f 96 141 126
f 116 141 96
f 799 753 767
f 799 737 753
f 191 126 141
f 191 141 189
f 189 206 191
f 740 753 737
f 240 191 206
f 240 206 227
f 227 272 240
f 730 740 737
f 648 656 704
f 730 704 656
f 323 298 325
f 325 381 323
f 380 381 325
f 380 462 381
f 503 462 380
f 503 540 462
f 569 540 503
f 569 594 540
f 596 594 569
f 596 648 704
f 594 596 704
f 384 373 369
f 384 369 389
f 467 384 389
f 467 464 384
f 518 464 467
f 518 537 464
f 583 537 518
f 583 592 537
f 676 592 583
f 676 657 592
f 653 657 676
f 653 676 720
f 1368 1382 1343
f 1368 1388 1382
f 322 285 274
f 322 274 341
f 341 369 322
f 322 369 373
f 720 801 653
f 653 801 808
f 808 801 820
f 1342 1322 1343
f 1342 1382 1360
f 1343 1382 1342
f 1382 1388 1360
f 179 162 156
f 179 156 167
f 274 179 167
f 274 242 179
f 242 274 285
f 836 820 851
f 836 808 820
f 1322 1318 1298
f 1342 1318 1322
f 1348 1318 1342
f 1342 1360 1348
f 156 125 114
f 162 125 156
f 873 851 892
f 873 836 851
f 1225 1231 1257
f 1236 1225 1257
f 1273 1257 1263
f 1236 1257 1273
f 1263 1282 1273
f 1318 1314 1298
f 1348 1314 1318
f 114 101 80
f 114 125 101
f 873 892 914
f 914 892 921
f 1225 1193 1231
f 1215 1193 1225
f 1225 1256 1215
f 1225 1236 1256
f 1256 1273 1262
f 1236 1273 1256
f 1273 1282 1262
f 67 80 84
f 58 80 67
f 80 101 84
f 931 921 942
f 931 914 921
f 1193 1212 1209
f 1215 1212 1193
f 1256 1252 1212
f 1215 1256 1212
f 1256 1262 1252
f 58 61 39
f 58 67 61
f 936 942 946
f 936 931 942
f 27 17 39
f 39 61 27
f 27 61 47
f 934 946 947
f 934 936 946
f 17 27 47
f 25 17 47
f 13 17 25
f 919 947 935
f 919 934 947
f 13 26 14
f 25 26 13
f 874 901 881
f 881 901 900
f 935 900 901
f 935 901 919
f 26 43 36
f 18 26 36
f 14 26 18
f 43 50 36
f 831 881 833
f 831 874 881
f 36 41 18
f 50 96 48
f 36 50 48
f 41 36 48
f 833 777 799
f 833 799 831
f 96 88 48
f 96 106 88
f 96 126 106
f 737 777 749
f 737 799 777
f 152 126 191
f 106 126 152
f 737 749 738
f 191 188 152
f 240 188 191
f 240 272 269
f 730 738 733
f 730 737 738
f 272 298 269
f 704 733 713
f 704 730 733
f 381 437 323
f 381 471 437
f 462 471 381
f 462 541 471
f 540 541 462
f 540 588 541
f 594 588 540
f 594 705 588
f 704 705 594
f 713 705 704
f 1376 1365 1355
f 1407 1408 1365
f 1407 1365 1376
f 1407 1419 1408
f 1338 1346 1328
f 1346 1338 1355
f 1365 1346 1355
f 1366 1346 1365
f 1365 1405 1366
f 1365 1408 1405
f 1408 1419 1422
f 1408 1422 1405
f 389 369 367
f 684 676 583
f 720 676 684
f 720 684 725
f 1346 1343 1328
f 1328 1343 1319
f 1343 1306 1319
f 1343 1346 1368
f 1368 1346 1366
f 1368 1366 1388
f 1366 1397 1388
f 1366 1405 1397
f 1405 1422 1403
f 1405 1403 1397
f 341 274 221
f 346 341 221
f 346 367 341
f 341 367 369
f 725 805 720
f 720 805 801
f 820 801 805
f 820 805 821
f 1275 1279 1249
f 1275 1249 1248
f 1295 1289 1279
f 1295 1279 1275
f 1289 1295 1319
f 1306 1289 1319
f 1322 1289 1306
f 1306 1343 1322
f 1388 1397 1360
f 1360 1397 1384
f 1397 1403 1384
f 1403 1393 1384
f 167 156 149
f 274 167 221
f 851 820 821
f 1221 1224 1208
f 1221 1208 1207
f 1249 1257 1248
f 1248 1257 1221
f 1257 1224 1221
f 1249 1263 1257
f 1249 1279 1263
f 1279 1298 1263
f 1279 1289 1298
f 1298 1289 1322
f 1383 1348 1384
f 1384 1348 1360
f 1384 1393 1370
f 1384 1370 1383
f 149 114 107
f 156 114 149
f 1188 1186 1162
f 1188 1162 1161
f 1186 1188 1207
f 1208 1186 1207
f 1231 1186 1208
f 1231 1208 1224
f 1224 1257 1231
f 1263 1298 1282
f 1314 1317 1298
f 1317 1282 1298
f 1317 1314 1345
f 1345 1314 1348
f 1348 1383 1345
f 1383 1370 1345
f 1370 1352 1345
f 89 107 80
f 80 107 114
f 921 892 893
f 921 893 926
f 1111 1099 1078
f 1111 1078 1085
f 1132 1130 1099
f 1132 1099 1111
f 1144 1135 1130
f 1144 1130 1132
f 1135 1144 1161
f 1162 1135 1161
f 1160 1135 1162
f 1162 1189 1160
f 1162 1186 1189
f 1193 1189 1231
f 1189 1186 1231
f 1282 1291 1262
f 1282 1310 1291
f 1282 1317 1310
f 1345 1332 1311
f 1310 1345 1311
f 1317 1345 1310
f 1345 1352 1332
f 89 58 54
f 80 58 89
f 942 926 966
f 942 921 926
f 1011 1006 987
f 1037 1036 1006
f 1037 1006 1011
f 1044 1049 1036
f 1044 1036 1037
f 1063 1070 1049
f 1063 1049 1044
f 1070 1063 1085
f 1078 1070 1085
f 1086 1070 1078
f 1078 1103 1086
f 1078 1099 1103
f 1099 1122 1103
f 1099 1130 1122
f 1130 1146 1122
f 1130 1135 1146
f 1135 1168 1146
f 1135 1160 1168
f 1160 1182 1168
f 1160 1189 1182
f 1209 1189 1193
f 1209 1182 1189
f 1212 1252 1254
f 1262 1254 1252
f 1262 1277 1254
f 1291 1301 1271
f 1277 1291 1271
f 1262 1291 1277
f 1310 1311 1301
f 1310 1301 1291
f 33 54 39
f 39 54 58
f 952 946 966
f 966 946 942
f 983 966 974
f 952 966 983
f 983 974 987
f 998 983 987
f 987 1010 998
f 987 1006 1010
f 1006 1030 1010
f 1006 1036 1030
f 1036 1057 1030
f 1036 1049 1057
f 1049 1069 1057
f 1049 1070 1069
f 1070 1089 1069
f 1070 1086 1089
f 1086 1110 1089
f 1086 1103 1110
f 1103 1123 1110
f 1103 1122 1123
f 1122 1137 1123
f 1122 1146 1137
f 1168 1163 1137
f 1146 1168 1137
f 1182 1175 1163
f 1182 1163 1168
f 1182 1191 1175
f 1209 1191 1182
f 1223 1209 1212
f 1223 1191 1209
f 1212 1254 1223
f 1254 1255 1223
f 1255 1230 1223
f 1277 1271 1255
f 1277 1255 1254
f 33 17 5
f 39 17 33
f 950 947 952
f 952 947 946
f 952 973 950
f 952 983 973
f 983 986 973
f 983 998 986
f 998 1017 986
f 998 1010 1017
f 1010 1035 1017
f 1010 1030 1035
f 1057 1054 1038
f 1035 1057 1038
f 1030 1057 1035
f 1069 1064 1054
f 1069 1054 1057
f 1089 1081 1064
f 1089 1064 1069
f 1110 1113 1081
f 1110 1081 1089
f 1123 1118 1113
f 1123 1113 1110
f 1137 1118 1123
f 1223 1230 1204
f 1223 1204 1191
f 5 13 1
f 17 13 5
f 951 935 950
f 950 935 947
f 950 972 951
f 950 973 972
f 986 990 968
f 972 986 968
f 973 986 972
f 1017 1018 990
f 1017 990 986
f 1035 1038 1018
f 1035 1018 1017
f 1 14 2
f 13 14 1
f 881 900 885
f 885 900 899
f 900 935 951
f 957 900 951
f 899 900 957
f 972 968 957
f 972 957 951
f 2 18 12
f 14 18 2
f 833 881 885
f 18 41 34
f 23 18 34
f 12 18 23
f 41 48 34
f 833 773 777
f 34 35 23
f 35 34 48
f 88 35 48
f 90 35 88
f 88 106 90
f 773 754 777
f 754 749 777
f 106 152 90
f 738 754 743
f 738 749 754
f 193 152 188
f 188 241 193
f 240 241 188
f 240 269 241
f 733 738 743
f 269 298 299
f 713 733 714
f 340 299 298
f 340 298 323
f 323 435 340
f 437 435 323
f 437 461 435
f 471 461 437
f 471 532 461
f 541 532 471
f 541 634 532
f 588 634 541
f 588 702 634
f 705 702 588
f 714 702 705
f 714 705 713
f 1371 1373 1362
f 1410 1402 1373
f 1410 1373 1371
f 1410 1420 1402
f 1373 1376 1362
f 1362 1376 1349
f 1376 1355 1349
f 1376 1373 1407
f 1407 1373 1402
f 1419 1407 1402
f 1420 1419 1402
f 1428 1419 1420
f 1349 1338 1321
f 1338 1328 1321
f 1349 1355 1338
f 1422 1428 1433
f 1422 1419 1428
f 389 367 366
f 533 518 467
f 601 518 533
f 601 583 518
f 673 583 601
f 673 684 583
f 725 684 673
f 725 673 722
f 1321 1319 1286
f 1321 1328 1319
f 1403 1433 1426
f 1403 1422 1433
f 221 217 237
f 366 221 237
f 366 346 221
f 346 366 367
f 722 805 725
f 1229 1219 1198
f 1229 1248 1219
f 1241 1248 1229
f 1265 1248 1241
f 1265 1275 1248
f 1295 1265 1286
f 1295 1275 1265
f 1286 1319 1295
f 1393 1403 1404
f 1426 1404 1403
f 167 149 143
f 167 143 168
f 168 217 167
f 167 217 221
f 851 821 852
f 1171 1177 1166
f 1171 1207 1177
f 1198 1207 1171
f 1219 1221 1198
f 1221 1207 1198
f 1219 1248 1221
f 1390 1393 1404
f 1390 1370 1393
f 149 107 143
f 892 852 880
f 892 851 852
f 1109 1112 1084
f 1128 1127 1112
f 1128 1112 1109
f 1142 1143 1127
f 1142 1127 1128
f 1142 1161 1143
f 1166 1161 1142
f 1177 1188 1166
f 1188 1161 1166
f 1177 1207 1188
f 1352 1370 1356
f 1356 1370 1369
f 1390 1369 1370
f 83 107 89
f 880 907 892
f 892 907 893
f 926 893 907
f 926 907 939
f 1002 1009 994
f 1026 1039 1009
f 1026 1009 1002
f 1041 1043 1039
f 1041 1039 1026
f 1065 1072 1043
f 1065 1043 1041
f 1084 1085 1065
f 1085 1072 1065
f 1085 1084 1111
f 1111 1084 1112
f 1111 1112 1132
f 1132 1112 1127
f 1132 1127 1144
f 1144 1127 1143
f 1143 1161 1144
f 1311 1332 1344
f 1352 1344 1332
f 1356 1344 1352
f 83 54 51
f 89 54 83
f 939 954 926
f 926 954 966
f 970 969 966
f 954 970 966
f 970 987 969
f 994 987 970
f 1009 1011 994
f 1011 987 994
f 1011 1009 1037
f 1037 1009 1039
f 1037 1039 1044
f 1044 1039 1043
f 1044 1043 1063
f 1063 1043 1072
f 1072 1085 1063
f 1271 1301 1300
f 1300 1301 1304
f 1301 1311 1304
f 1304 1311 1344
f 44 51 33
f 33 51 54
f 966 969 974
f 969 987 974
f 1137 1163 1158
f 1158 1163 1174
f 1174 1163 1175
f 1175 1191 1174
f 1230 1255 1253
f 1253 1255 1260
f 1255 1267 1260
f 1255 1271 1267
f 1299 1271 1300
f 1267 1271 1299
f 1300 1304 1299
f 33 5 44
f 1038 1054 1055
f 1055 1054 1062
f 1062 1054 1064
f 1062 1064 1087
f 1087 1064 1081
f 1087 1081 1104
f 1104 1081 1113
f 1104 1113 1115
f 1115 1113 1118
f 1115 1118 1134
f 1118 1137 1134
f 1152 1137 1158
f 1134 1137 1152
f 1174 1170 1152
f 1174 1152 1158
f 1170 1174 1191
f 1204 1170 1191
f 1202 1170 1204
f 1204 1227 1202
f 1230 1227 1204
f 1227 1230 1253
f 968 990 999
f 999 990 1016
f 1016 990 1018
f 1016 1018 1029
f 1029 1018 1038
f 1038 1055 1029
f 1055 1056 1029
f 1062 1067 1056
f 1062 1056 1055
f 1087 1092 1067
f 1087 1067 1062
f 1104 1105 1092
f 1104 1092 1087
f 1115 1124 1105
f 1115 1105 1104
f 1115 1134 1124
f 961 899 957
f 961 957 967
f 957 968 967
f 997 968 999
f 967 968 997
f 1016 1020 997
f 1016 997 999
f 1029 1020 1016
f 2 12 7
f 906 861 899
f 861 885 899
f 861 833 885
f 961 962 906
f 961 906 899
f 961 967 962
f 7 23 21
f 12 23 7
f 773 861 822
f 773 833 861
f 31 21 23
f 31 23 35
f 86 31 90
f 31 35 90
f 754 773 759
f 822 759 773
f 90 139 86
f 90 152 139
f 743 754 759
f 169 139 152
f 169 152 193
f 193 225 169
f 241 225 193
f 241 269 225
f 339 299 340
f 340 432 339
f 435 432 340
f 435 491 432
f 461 491 435
f 461 534 491
f 532 534 461
f 532 634 534
f 1371 1362 1358
f 1371 1358 1374
f 1412 1371 1374
f 1412 1410 1371
f 1420 1410 1412
f 1420 1412 1424
f 1329 1358 1349
f 1349 1358 1362
f 1428 1424 1432
f 1428 1420 1424
f 1323 1329 1321
f 1321 1329 1349
f 1433 1432 1435
f 1433 1428 1432
f 389 366 421
f 457 389 421
f 457 467 389
f 536 467 457
f 536 533 467
f 600 533 536
f 600 601 533
f 716 601 600
f 716 673 601
f 722 673 716
f 1272 1265 1250
f 1272 1286 1265
f 1290 1286 1272
f 1290 1323 1286
f 1286 1323 1321
f 1426 1435 1431
f 1426 1433 1435
f 237 217 215
f 237 215 234
f 326 237 234
f 326 366 237
f 326 421 366
f 716 768 722
f 722 768 805
f 821 805 768
f 821 768 819
f 1210 1229 1198
f 1213 1229 1210
f 1241 1213 1250
f 1241 1229 1213
f 1241 1250 1265
f 1404 1431 1418
f 1404 1426 1431
f 168 215 217
f 852 821 819
f 1164 1166 1151
f 1164 1171 1166
f 1178 1171 1164
f 1198 1178 1210
f 1198 1171 1178
f 1390 1404 1392
f 1392 1404 1413
f 1418 1413 1404
f 1084 1075 1076
f 1108 1084 1076
f 1108 1109 1084
f 1126 1109 1108
f 1126 1128 1109
f 1140 1128 1126
f 1140 1142 1128
f 1166 1140 1151
f 1166 1142 1140
f 1356 1369 1359
f 1359 1369 1363
f 1392 1363 1369
f 1392 1369 1390
f 91 107 83
f 880 902 907
f 939 907 902
f 939 902 943
f 995 994 985
f 995 1002 994
f 1008 1002 995
f 1025 1002 1008
f 1025 1026 1002
f 1048 1026 1025
f 1048 1041 1026
f 1075 1041 1048
f 1075 1065 1041
f 1065 1075 1084
f 1344 1359 1351
f 1344 1356 1359
f 943 956 939
f 939 956 954
f 979 954 956
f 979 970 954
f 994 979 985
f 994 970 979
f 1304 1337 1327
f 1304 1344 1337
f 1351 1337 1344
f 1260 1267 1261
f 1261 1267 1274
f 1267 1297 1274
f 1299 1297 1267
f 1316 1299 1304
f 1297 1299 1316
f 1304 1327 1316
f 44 5 9
f 1134 1165 1150
f 1134 1152 1165
f 1152 1172 1165
f 1170 1172 1152
f 1195 1172 1202
f 1172 1170 1202
f 1226 1202 1227
f 1227 1237 1226
f 1227 1253 1237
f 1261 1237 1253
f 1261 1253 1260
f 5 1 9
f 1029 1056 1040
f 1056 1059 1040
f 1067 1059 1056
f 1067 1088 1059
f 1092 1088 1067
f 1092 1106 1088
f 1105 1106 1092
f 1105 1133 1106
f 1124 1133 1105
f 1138 1124 1134
f 1133 1124 1138
f 1134 1150 1138
f 1202 1199 1195
f 1226 1222 1199
f 1226 1199 1202
f 967 993 984
f 967 997 993
f 997 1019 993
f 1020 1019 997
f 1020 1027 1019
f 1029 1027 1020
f 1040 1027 1029
f 2 7 6
f 861 906 865
f 865 906 905
f 906 955 905
f 962 955 906
f 984 962 967
f 955 962 984
f 6 21 20
f 7 21 6
f 822 865 825
f 822 861 865
f 30 20 21
f 30 21 31
f 31 86 30
f 30 86 64
f 825 761 759
f 825 759 822
f 78 64 86
f 86 139 78
f 78 139 133
f 743 759 761
f 181 133 139
f 181 139 169
f 169 244 181
f 225 244 169
f 225 269 244
f 244 269 270
f 733 743 734
f 270 299 300
f 269 299 270
f 714 733 734
f 316 300 299
f 316 299 339
f 339 425 316
f 432 425 339
f 432 557 425
f 491 557 432
f 491 544 557
f 534 544 491
f 534 616 544
f 634 616 534
f 634 692 616
f 702 692 634
f 714 692 702
f 1374 1358 1361
f 1374 1361 1375
f 1411 1374 1375
f 1411 1412 1374
f 1424 1412 1411
f 1424 1411 1421
f 1341 1361 1329
f 1329 1361 1358
f 1432 1421 1429
f 1432 1424 1421
f 1312 1341 1323
f 1323 1341 1329
f 1435 1429 1434
f 1435 1432 1429
f 565 536 457
f 613 536 565
f 613 600 536
f 613 645 716
f 600 613 716
f 1250 1238 1281
f 1250 1281 1272
f 1285 1272 1281
f 1290 1272 1285
f 1285 1312 1290
f 1290 1312 1323
f 1431 1434 1430
f 1431 1435 1434
f 667 716 645
f 667 768 716
f 667 789 768
f 819 768 789
f 819 789 815
f 1216 1210 1197
f 1213 1210 1216
f 1250 1213 1238
f 1213 1216 1238
f 1418 1430 1417
f 1418 1431 1430
f 852 815 849
f 852 819 815
f 1164 1151 1169
f 1176 1164 1169
f 1178 1164 1176
f 1210 1178 1197
f 1178 1176 1197
f 1392 1413 1391
f 1391 1413 1414
f 1417 1414 1413
f 1417 1413 1418
f 143 107 91
f 880 849 879
f 880 852 849
f 1076 1075 1090
f 1101 1076 1090
f 1101 1108 1076
f 1120 1108 1101
f 1120 1126 1108
f 1136 1126 1120
f 1136 1140 1126
f 1151 1140 1169
f 1140 1136 1169
f 1359 1363 1357
f 1357 1363 1386
f 1391 1386 1363
f 1391 1363 1392
f 879 894 880
f 880 894 902
f 943 902 894
f 943 894 940
f 995 985 1001
f 1007 995 1001
f 1008 995 1007
f 1028 1008 1007
f 1028 1025 1008
f 1047 1025 1028
f 1047 1048 1025
f 1068 1048 1047
f 1068 1075 1048
f 1068 1090 1075
f 1351 1357 1340
f 1351 1359 1357
f 83 51 52
f 940 958 943
f 943 958 956
f 971 956 958
f 971 979 956
f 985 979 1001
f 979 971 1001
f 1327 1337 1305
f 1337 1340 1305
f 1340 1337 1351
f 46 52 44
f 44 52 51
f 1261 1274 1259
f 1259 1274 1276
f 1274 1288 1276
f 1297 1288 1274
f 1288 1316 1305
f 1297 1316 1288
f 1327 1305 1316
f 44 9 46
f 1150 1165 1139
f 1165 1153 1139
f 1165 1183 1153
f 1172 1183 1165
f 1196 1172 1195
f 1196 1183 1172
f 1222 1228 1196
f 1226 1237 1222
f 1237 1228 1222
f 1237 1240 1228
f 1259 1240 1237
f 1259 1237 1261
f 9 1 4
f 1022 1040 1053
f 1040 1061 1053
f 1059 1061 1040
f 1059 1093 1061
f 1088 1093 1059
f 1088 1107 1093
f 1106 1107 1088
f 1106 1121 1107
f 1133 1121 1106
f 1121 1138 1139
f 1133 1138 1121
f 1150 1139 1138
f 1196 1195 1199
f 1196 1199 1222
f 4 2 3
f 1 2 4
f 984 993 978
f 993 1000 978
f 993 1021 1000
f 1019 1021 993
f 1019 1022 1021
f 1027 1022 1019
f 1022 1027 1040
f 2 6 3
f 865 905 886
f 905 953 886
f 955 953 905
f 984 978 953
f 955 984 953
f 40 20 30
f 30 64 40
f 40 64 65
f 77 65 64
f 77 64 78
f 78 133 77
f 77 133 134
f 743 761 744
f 181 134 133
f 734 743 744
f 714 734 715
f 314 300 316
f 316 408 314
f 425 408 316
f 425 474 408
f 557 474 425
f 544 625 557
f 616 625 544
f 616 692 625
f 715 692 714
f 1375 1361 1380
f 1375 1380 1395
f 1399 1375 1395
f 1411 1375 1399
f 1421 1411 1399
f 1421 1399 1415
f 1380 1361 1341
f 1380 1341 1331
f 1377 1380 1331
f 1354 1377 1331
f 1395 1380 1377
f 1429 1415 1423
f 1429 1421 1415
f 1331 1341 1312
f 1350 1331 1312
f 1354 1331 1350
f 1434 1423 1427
f 1434 1429 1423
f 488 421 395
f 488 457 421
f 546 457 488
f 546 565 457
f 640 565 546
f 640 613 565
f 645 613 640
f 1313 1312 1285
f 1350 1312 1313
f 1430 1427 1425
f 1430 1434 1427
f 234 215 216
f 234 216 258
f 311 234 258
f 311 326 234
f 311 395 326
f 326 395 421
f 640 669 645
f 645 669 667
f 782 667 669
f 782 789 667
f 815 789 782
f 815 782 814
f 1216 1197 1235
f 1247 1216 1235
f 1238 1216 1247
f 1268 1238 1247
f 1268 1281 1238
f 1281 1302 1285
f 1281 1268 1302
f 1313 1285 1302
f 1417 1425 1396
f 1417 1430 1425
f 168 143 144
f 168 144 183
f 183 216 168
f 168 216 215
f 849 815 814
f 1176 1169 1185
f 1176 1185 1190
f 1201 1176 1190
f 1197 1176 1201
f 1197 1214 1235
f 1197 1201 1214
f 1391 1414 1389
f 1389 1414 1396
f 1396 1414 1417
f 143 91 144
f 879 849 878
f 1090 1100 1101
f 1101 1100 1114
f 1101 1114 1120
f 1120 1114 1147
f 1120 1147 1136
f 1136 1147 1167
f 1169 1136 1167
f 1169 1179 1185
f 1169 1167 1179
f 1190 1185 1179
f 1357 1386 1353
f 1353 1386 1367
f 1389 1367 1386
f 1389 1386 1391
f 73 91 83
f 878 895 879
f 879 895 894
f 940 894 895
f 940 895 927
f 1007 1001 1012
f 1007 1012 1034
f 1007 1034 1028
f 1028 1034 1045
f 1028 1045 1047
f 1047 1045 1074
f 1047 1074 1068
f 1090 1068 1074
f 1091 1090 1074
f 1102 1100 1091
f 1091 1100 1090
f 1129 1114 1102
f 1102 1114 1100
f 1148 1147 1129
f 1129 1147 1114
f 1167 1147 1148
f 1340 1333 1308
f 1353 1333 1340
f 1357 1353 1340
f 83 52 73
f 927 965 940
f 940 965 958
f 971 965 976
f 958 965 971
f 971 976 988
f 1001 971 988
f 1001 1013 1012
f 1001 988 1013
f 1033 1034 1013
f 1013 1034 1012
f 1042 1045 1033
f 1033 1045 1034
f 1071 1074 1042
f 1042 1074 1045
f 1091 1074 1071
f 1292 1294 1280
f 1305 1294 1292
f 1305 1308 1294
f 1305 1340 1308
f 46 19 29
f 29 52 46
f 975 976 965
f 988 976 975
f 1157 1156 1149
f 1184 1187 1157
f 1157 1187 1156
f 1192 1187 1184
f 1251 1239 1233
f 1259 1276 1251
f 1276 1239 1251
f 1276 1278 1239
f 1288 1292 1280
f 1278 1288 1280
f 1276 1288 1278
f 1305 1292 1288
f 46 9 19
f 1050 1046 1024
f 1073 1066 1050
f 1050 1066 1046
f 1083 1079 1073
f 1073 1079 1066
f 1094 1096 1083
f 1083 1096 1079
f 1116 1131 1094
f 1094 1131 1096
f 1139 1131 1116
f 1139 1149 1131
f 1153 1157 1149
f 1139 1153 1149
f 1157 1153 1183
f 1157 1183 1184
f 1183 1192 1184
f 1196 1192 1183
f 1196 1233 1192
f 1228 1233 1196
f 1240 1251 1233
f 1228 1240 1233
f 1259 1251 1240
f 996 992 980
f 1014 1015 996
f 996 1015 992
f 1022 1024 1014
f 1014 1024 1015
f 1053 1050 1024
f 1022 1053 1024
f 1050 1053 1061
f 1050 1061 1073
f 1073 1061 1093
f 1073 1093 1083
f 1083 1093 1107
f 1083 1107 1094
f 1094 1107 1121
f 1094 1121 1116
f 1139 1116 1121
f 953 964 917
f 978 964 953
f 978 980 964
f 1000 996 980
f 978 1000 980
f 996 1000 1021
f 996 1021 1014
f 1014 1021 1022
f 3 6 11
f 865 886 862
f 862 886 889
f 889 953 917
f 886 953 889
f 11 20 22
f 6 20 11
f 825 862 826
f 825 865 862
f 37 22 20
f 37 20 40
f 40 65 37
f 37 65 66
f 826 762 761
f 826 761 825
f 66 65 77
f 77 134 66
f 66 134 140
f 744 761 762
f 175 140 134
f 175 134 181
f 181 247 175
f 244 247 181
f 244 270 247
f 270 300 353
f 353 300 314
f 314 405 353
f 408 405 314
f 408 473 405
f 474 473 408
f 474 560 473
f 557 560 474
f 557 617 560
f 625 617 557
f 625 712 617
f 692 712 625
f 715 712 692
f 1399 1395 1400
f 1415 1399 1400
f 1377 1354 1387
f 1400 1395 1377
f 1387 1400 1377
f 1409 1400 1387
f 1415 1400 1409
f 1415 1409 1423
f 1387 1354 1350
f 1387 1350 1339
f 1385 1387 1339
f 1372 1385 1339
f 1385 1409 1387
f 1416 1423 1409
f 1427 1423 1416
f 395 368 391
f 483 395 391
f 483 488 395
f 542 488 483
f 542 546 488
f 542 619 640
f 546 542 640
f 1339 1350 1313
f 1339 1313 1307
f 1336 1339 1307
f 1372 1339 1336
f 1406 1398 1394
f 1416 1398 1406
f 1425 1416 1406
f 1427 1416 1425
f 258 216 219
f 258 219 259
f 310 258 259
f 310 311 258
f 310 368 311
f 311 368 395
f 619 669 640
f 619 668 669
f 783 669 668
f 783 782 669
f 814 782 783
f 1247 1235 1242
f 1247 1242 1264
f 1247 1264 1268
f 1268 1264 1296
f 1268 1296 1302
f 1307 1313 1302
f 1296 1307 1302
f 1315 1307 1296
f 1336 1307 1326
f 1326 1307 1315
f 1381 1396 1394
f 1394 1396 1406
f 1425 1406 1396
f 183 144 151
f 183 151 199
f 199 219 183
f 183 219 216
f 1201 1190 1200
f 1201 1200 1217
f 1201 1217 1214
f 1242 1235 1214
f 1242 1214 1217
f 1258 1242 1217
f 1266 1242 1258
f 1266 1264 1242
f 1293 1264 1266
f 1296 1264 1293
f 1326 1315 1303
f 1315 1293 1303
f 1315 1296 1293
f 1364 1381 1335
f 1389 1396 1381
f 1364 1389 1381
f 151 91 112
f 144 91 151
f 1167 1154 1173
f 1167 1173 1179
f 1200 1190 1179
f 1173 1200 1179
f 1218 1200 1173
f 1217 1200 1218
f 1258 1217 1218
f 1283 1284 1266
f 1284 1293 1266
f 1303 1293 1324
f 1293 1320 1324
f 1293 1284 1320
f 1334 1335 1320
f 1320 1335 1324
f 1367 1364 1335
f 1353 1367 1335
f 1334 1353 1335
f 1389 1364 1367
f 95 112 73
f 73 112 91
f 878 897 895
f 927 895 897
f 927 897 920
f 1091 1082 1097
f 1091 1097 1102
f 1102 1097 1125
f 1102 1125 1129
f 1129 1125 1141
f 1129 1141 1148
f 1154 1167 1148
f 1141 1154 1148
f 1159 1154 1141
f 1180 1154 1159
f 1173 1154 1180
f 1218 1180 1194
f 1218 1173 1180
f 1269 1284 1283
f 1269 1287 1284
f 1309 1284 1287
f 1320 1284 1309
f 1309 1308 1333
f 1334 1309 1333
f 1320 1309 1334
f 1353 1334 1333
f 95 52 57
f 73 52 95
f 965 927 949
f 927 941 949
f 927 920 941
f 988 1005 1013
f 1013 1005 1032
f 1013 1032 1033
f 1033 1032 1051
f 1033 1051 1042
f 1042 1051 1060
f 1042 1060 1071
f 1082 1091 1071
f 1060 1082 1071
f 1080 1082 1060
f 1098 1082 1080
f 1097 1082 1098
f 1117 1097 1098
f 1125 1097 1117
f 1145 1125 1117
f 1141 1125 1145
f 1155 1141 1145
f 1159 1141 1155
f 1181 1159 1155
f 1180 1159 1181
f 1194 1180 1206
f 1180 1181 1206
f 1246 1243 1211
f 1243 1246 1269
f 1246 1280 1269
f 1287 1280 1294
f 1269 1280 1287
f 1287 1294 1308
f 1287 1308 1309
f 29 19 42
f 42 57 29
f 29 57 52
f 945 960 941
f 941 960 949
f 981 975 965
f 949 981 965
f 960 981 949
f 981 988 975
f 991 988 981
f 1004 988 991
f 1005 988 1004
f 1031 1005 1004
f 1032 1005 1031
f 1052 1032 1031
f 1051 1032 1052
f 1058 1051 1052
f 1060 1051 1058
f 1077 1060 1058
f 1080 1060 1077
f 1095 1080 1077
f 1098 1080 1095
f 1119 1098 1095
f 1117 1098 1119
f 1149 1117 1119
f 1145 1117 1149
f 1155 1149 1156
f 1145 1149 1155
f 1155 1156 1187
f 1155 1187 1181
f 1181 1187 1192
f 1205 1181 1192
f 1206 1181 1205
f 1206 1220 1211
f 1206 1205 1220
f 1239 1246 1211
f 1233 1239 1211
f 1220 1233 1211
f 1246 1239 1278
f 1246 1278 1280
f 42 9 15
f 19 9 42
f 948 959 945
f 945 959 960
f 977 960 959
f 981 960 977
f 989 981 977
f 991 981 989
f 1003 991 989
f 1004 991 1003
f 1023 1004 1003
f 1031 1004 1023
f 1023 1024 1046
f 1052 1023 1046
f 1031 1023 1052
f 1052 1046 1066
f 1052 1066 1058
f 1058 1066 1079
f 1058 1079 1077
f 1077 1079 1096
f 1077 1096 1095
f 1095 1096 1131
f 1095 1131 1119
f 1119 1131 1149
f 1205 1192 1233
f 1205 1233 1220
f 15 4 8
f 9 4 15
f 944 963 948
f 948 963 959
f 982 959 963
f 977 959 982
f 982 980 992
f 989 982 992
f 977 982 989
f 989 992 1015
f 989 1015 1003
f 1003 1015 1024
f 1003 1024 1023
f 8 3 10
f 4 3 8
f 963 944 964
f 944 917 964
f 944 913 917
f 963 964 980
f 963 980 982
f 10 11 16
f 3 11 10
f 862 889 867
f 867 889 891
f 913 891 889
f 913 889 917
f 16 22 32
f 11 22 16
f 826 867 828
f 826 862 867
f 32 22 37
f 69 32 37
f 66 69 37
f 828 762 826
f 66 140 69
f 140 153 69
f 177 153 140
f 177 140 175
f 175 247 177
f 247 270 273
f 734 744 731
f 273 353 305
f 270 353 273
f 412 305 353
f 715 731 712
f 715 734 731
f 388 412 353
f 405 388 353
f 405 463 388
f 473 463 405
f 473 528 463
f 560 528 473
f 560 618 528
f 617 618 560
f 617 683 618
f 712 683 617
f 1385 1372 1401
f 1385 1401 1409
f 1416 1409 1401
f 391 368 374
f 391 374 402
f 479 391 402
f 479 483 391
f 563 483 479
f 563 542 483
f 619 542 563
f 619 563 576
f 1330 1372 1336
f 1378 1372 1330
f 1378 1394 1398
f 1401 1378 1398
f 1372 1378 1401
f 1416 1401 1398
f 259 219 262
f 259 262 279
f 317 259 279
f 310 259 317
f 317 374 310
f 310 374 368
f 576 620 619
f 678 619 620
f 678 668 619
f 766 668 678
f 766 783 668
f 814 783 766
f 814 766 812
f 1326 1347 1330
f 1326 1330 1336
f 1379 1330 1347
f 1378 1330 1379
f 1394 1378 1379
f 1394 1379 1381
f 199 151 196
f 219 199 262
f 199 257 262
f 199 196 257
f 279 262 257
f 849 812 847
f 849 814 812
f 1326 1303 1325
f 1325 1347 1326
f 1335 1347 1325
f 1379 1335 1381
f 1347 1335 1379
f 196 112 117
f 151 112 196
f 878 847 877
f 878 849 847
f 1234 1258 1218
f 1244 1258 1234
f 1270 1266 1258
f 1244 1270 1258
f 1283 1266 1270
f 1325 1303 1324
f 1325 1324 1335
f 94 117 95
f 95 117 112
f 877 918 878
f 878 918 897
f 920 897 918
f 1218 1194 1203
f 1203 1234 1218
f 1232 1234 1203
f 1245 1234 1232
f 1244 1234 1245
f 1270 1245 1269
f 1244 1245 1270
f 1283 1270 1269
f 94 57 63
f 95 57 94
f 941 918 932
f 941 920 918
f 1203 1194 1206
f 1203 1206 1211
f 1232 1203 1211
f 1245 1211 1243
f 1232 1211 1245
f 1269 1245 1243
f 49 57 42
f 49 63 57
f 945 932 937
f 945 941 932
f 24 49 42
f 15 24 42
f 948 937 938
f 948 945 937
f 24 8 45
f 15 8 24
f 944 938 933
f 944 948 938
f 45 10 38
f 8 10 45
f 913 933 896
f 913 944 933
f 38 16 28
f 10 16 38
f 867 891 870
f 870 891 896
f 896 891 913
f 28 16 32
f 28 32 60
f 828 870 824
f 828 867 870
f 92 60 32
f 92 32 69
f 92 69 105
f 760 762 803
f 824 803 762
f 824 762 828
f 105 153 159
f 69 153 105
f 744 762 760
f 187 159 153
f 187 153 177
f 177 243 187
f 247 243 177
f 247 273 243
f 243 273 275
f 331 275 273
f 331 273 305
f 412 331 305
f 712 731 711
f 388 499 412
f 463 499 388
f 463 553 499
f 528 553 463
f 528 607 553
f 618 607 528
f 618 693 607
f 683 693 618
f 711 693 683
f 711 683 712
f 402 374 378
f 402 378 428
f 476 402 428
f 476 479 402
f 571 479 476
f 571 563 479
f 576 563 571
f 317 279 348
f 348 359 317
f 359 374 317
f 359 378 374
f 571 605 576
f 576 605 620
f 701 620 605
f 701 678 620
f 809 678 701
f 809 766 678
f 812 766 809
f 257 196 263
f 279 257 348
f 257 263 348
f 847 809 846
f 847 812 809
f 145 166 196
f 117 145 196
f 263 196 166
f 877 846 871
f 877 847 846
f 104 117 94
f 104 145 117
f 871 910 877
f 877 910 918
f 63 93 94
f 104 94 93
f 932 910 925
f 932 918 910
f 93 49 62
f 63 49 93
f 937 925 929
f 937 932 925
f 24 56 49
f 56 62 49
f 938 929 930
f 938 937 929
f 56 24 53
f 53 24 45
f 933 930 923
f 933 938 930
f 53 45 55
f 55 45 38
f 896 923 887
f 896 933 923
f 55 38 59
f 59 38 28
f 870 896 863
f 863 896 887
f 60 59 28
f 60 68 59
f 824 863 818
f 824 870 863
f 87 68 60
f 87 60 92
f 92 105 87
f 87 105 119
f 760 803 756
f 756 803 800
f 818 800 803
f 818 803 824
f 119 159 178
f 105 159 119
f 744 756 742
f 744 760 756
f 178 159 187
f 187 245 178
f 243 245 187
f 243 275 245
f 731 742 729
f 731 744 742
f 329 245 275
f 329 275 331
f 331 449 329
f 412 449 331
f 711 729 709
f 711 731 729
f 504 449 412
f 504 412 499
f 504 553 509
f 499 553 504
f 632 509 553
f 607 632 553
f 607 663 632
f 693 663 607
f 709 663 693
f 709 693 711
f 428 378 426
f 428 426 442
f 478 428 442
f 476 428 478
f 478 507 571
f 476 478 571
f 365 429 426
f 378 365 426
f 359 365 378
f 442 426 429
f 551 571 507
f 551 605 571
f 551 637 605
f 689 605 637
f 689 701 605
f 689 748 809
f 701 689 809
f 263 261 309
f 348 263 309
f 309 365 348
f 348 365 359
f 784 809 748
f 829 809 784
f 846 809 829
f 166 145 164
f 261 263 166
f 261 166 164
f 265 261 164
f 309 261 265
f 871 829 857
f 871 846 829
f 137 186 164
f 145 137 164
f 104 137 145
f 265 164 186
f 871 883 910
f 871 857 883
f 97 104 93
f 97 137 104
f 909 910 883
f 925 910 909
f 81 97 93
f 62 81 93
f 929 909 916
f 929 925 909
f 81 56 82
f 62 56 81
f 930 916 915
f 930 929 916
f 82 53 72
f 56 53 82
f 923 915 911
f 923 930 915
f 72 55 75
f 53 55 72
f 911 882 887
f 923 911 887
f 75 59 76
f 55 59 75
f 882 863 887
f 882 845 863
f 68 108 76
f 59 68 76
f 818 845 779
f 818 863 845
f 108 68 87
f 87 119 108
f 119 170 108
f 756 800 752
f 752 800 779
f 779 800 818
f 171 170 119
f 171 119 178
f 171 178 207
f 742 752 739
f 742 756 752
f 236 207 178
f 236 178 245
f 236 245 283
f 729 742 739
f 345 283 245
f 345 245 329
f 329 383 345
f 449 383 329
f 458 383 449
f 509 564 458
f 564 509 573
f 709 729 710
f 458 449 504
f 509 458 504
f 629 573 509
f 629 509 632
f 632 665 629
f 663 665 632
f 710 665 663
f 710 663 709
f 478 442 507
f 429 365 376
f 429 376 393
f 442 429 507
f 429 450 507
f 429 393 450
f 450 551 507
f 450 550 551
f 636 551 550
f 636 637 551
f 636 641 660
f 689 636 660
f 637 636 689
f 748 689 660
f 363 365 309
f 363 376 365
f 681 660 641
f 784 748 778
f 778 748 763
f 748 660 763
f 660 681 763
f 829 784 778
f 309 265 231
f 306 309 231
f 363 309 306
f 795 778 763
f 829 778 795
f 823 829 795
f 857 829 823
f 186 137 182
f 231 265 186
f 231 186 182
f 233 231 182
f 228 233 182
f 306 231 233
f 883 823 850
f 883 857 823
f 138 185 182
f 137 138 182
f 97 138 137
f 228 182 185
f 883 868 909
f 883 850 868
f 81 115 97
f 115 138 97
f 875 890 868
f 868 890 909
f 909 890 916
f 115 81 113
f 113 81 82
f 876 915 875
f 875 915 890
f 916 890 915
f 113 82 109
f 109 82 72
f 872 911 876
f 876 911 915
f 109 72 111
f 111 72 75
f 911 872 882
f 872 859 882
f 111 75 118
f 118 75 76
f 845 859 840
f 845 882 859
f 108 118 76
f 108 146 118
f 779 840 793
f 779 845 840
f 108 170 146
f 202 146 170
f 752 779 755
f 755 779 793
f 171 207 170
f 207 202 170
f 207 239 202
f 739 752 755
f 266 239 207
f 266 207 236
f 236 283 266
f 266 283 302
f 302 283 345
f 345 419 302
f 383 419 345
f 383 489 419
f 458 489 383
f 458 527 489
f 564 527 458
f 564 573 527
f 527 573 577
f 710 729 708
f 623 577 573
f 623 573 629
f 629 672 623
f 665 672 629
f 708 672 665
f 708 665 710
f 453 393 444
f 450 393 453
f 522 450 453
f 522 550 450
f 522 572 621
f 636 522 621
f 550 522 636
f 641 636 621
f 372 424 393
f 376 372 393
f 363 372 376
f 444 393 424
f 642 621 572
f 681 641 687
f 687 641 642
f 641 621 642
f 763 681 687
f 355 360 306
f 360 363 306
f 360 372 363
f 727 687 642
f 795 763 788
f 788 763 727
f 763 687 727
f 823 795 788
f 355 306 233
f 355 233 228
f 320 355 228
f 290 320 228
f 360 355 320
f 802 788 727
f 823 788 802
f 813 823 802
f 850 823 813
f 185 138 184
f 228 185 184
f 224 228 184
f 290 228 224
f 868 813 834
f 868 850 813
f 138 165 184
f 115 165 138
f 224 184 165
f 875 834 848
f 875 868 834
f 165 113 157
f 115 113 165
f 876 848 854
f 876 875 848
f 157 109 148
f 113 109 157
f 872 854 855
f 872 876 854
f 148 111 147
f 109 111 148
f 859 855 853
f 859 872 855
f 147 118 197
f 111 118 147
f 840 853 842
f 840 859 853
f 146 172 197
f 118 146 197
f 793 842 791
f 793 840 842
f 146 202 172
f 202 256 172
f 755 793 758
f 758 793 791
f 256 239 238
f 202 239 256
f 280 238 239
f 739 758 741
f 739 755 758
f 357 280 239
f 357 239 266
f 302 357 266
f 419 416 302
f 302 416 357
f 419 500 416
f 729 741 728
f 729 739 741
f 419 489 500
f 567 506 500
f 489 567 500
f 527 567 489
f 527 577 567
f 567 577 579
f 672 652 644
f 728 652 672
f 708 728 672
f 729 728 708
f 579 577 623
f 579 672 644
f 623 672 579
f 453 444 475
f 453 475 516
f 453 516 522
f 572 522 516
f 424 372 436
f 475 444 424
f 475 424 436
f 455 475 436
f 440 455 436
f 570 516 455
f 455 516 475
f 642 572 627
f 627 572 570
f 572 516 570
f 370 423 436
f 372 370 436
f 360 370 372
f 440 436 423
f 575 628 570
f 570 628 627
f 707 727 642
f 627 707 642
f 628 707 627
f 320 290 308
f 308 361 320
f 361 360 320
f 361 370 360
f 578 638 575
f 575 638 628
f 699 628 638
f 707 628 699
f 707 802 727
f 699 802 707
f 308 290 224
f 312 308 224
f 343 312 224
f 361 308 312
f 595 638 578
f 694 699 595
f 595 699 638
f 764 796 694
f 796 699 694
f 796 802 699
f 813 802 796
f 813 796 834
f 267 224 165
f 343 224 282
f 282 224 267
f 817 834 796
f 848 834 817
f 157 190 165
f 268 165 190
f 267 165 268
f 282 267 268
f 854 817 827
f 854 848 817
f 148 200 190
f 148 190 157
f 268 200 294
f 268 190 200
f 855 827 835
f 855 854 827
f 147 198 200
f 147 200 148
f 294 200 211
f 211 200 198
f 853 835 839
f 853 855 835
f 197 198 147
f 211 198 213
f 213 198 197
f 842 839 832
f 842 853 839
f 172 213 197
f 172 252 213
f 791 832 787
f 791 842 832
f 252 256 249
f 172 256 252
f 278 249 256
f 758 791 750
f 750 791 787
f 315 278 256
f 315 256 238
f 280 315 238
f 741 750 732
f 741 758 750
f 315 280 357
f 357 418 315
f 416 418 357
f 416 484 418
f 500 484 416
f 558 525 506
f 525 500 506
f 525 484 500
f 728 732 719
f 728 741 732
f 558 506 567
f 602 525 558
f 602 558 567
f 582 602 567
f 579 582 567
f 644 652 582
f 652 602 582
f 652 682 602
f 719 682 652
f 719 652 728
f 644 582 579
f 455 440 456
f 455 456 570
f 423 370 414
f 456 440 423
f 414 456 423
f 460 456 414
f 554 456 460
f 570 456 554
f 570 554 575
f 361 430 414
f 361 414 370
f 469 414 430
f 460 414 469
f 535 460 469
f 554 460 535
f 575 554 535
f 575 535 578
f 430 361 312
f 430 312 343
f 431 430 343
f 375 431 343
f 505 469 431
f 431 469 430
f 531 469 505
f 531 535 469
f 593 595 578
f 535 593 578
f 531 593 535
f 595 593 706
f 595 706 694
f 764 694 706
f 282 333 343
f 375 343 364
f 364 343 333
f 511 520 505
f 505 520 531
f 608 531 520
f 593 531 608
f 698 593 608
f 706 593 698
f 807 796 764
f 706 807 764
f 698 807 706
f 817 796 807
f 268 358 333
f 268 333 282
f 364 333 358
f 562 520 511
f 597 608 562
f 562 608 520
f 700 698 597
f 597 698 608
f 724 804 700
f 804 698 700
f 804 807 698
f 817 807 804
f 817 804 827
f 358 268 294
f 797 804 724
f 827 804 797
f 835 827 797
f 211 287 294
f 839 797 816
f 839 835 797
f 213 230 287
f 213 287 211
f 286 287 230
f 832 816 781
f 832 839 816
f 252 230 213
f 286 230 291
f 291 230 252
f 785 781 747
f 787 781 785
f 832 781 787
f 304 291 252
f 304 252 249
f 278 304 249
f 454 485 445
f 543 519 454
f 454 519 485
f 584 519 543
f 785 747 787
f 747 750 787
f 747 717 750
f 304 278 315
f 396 304 315
f 399 396 315
f 396 399 445
f 399 454 445
f 399 484 454
f 549 454 484
f 543 454 549
f 584 543 585
f 585 543 549
f 732 717 647
f 750 717 732
f 399 315 418
f 399 418 484
f 484 525 549
f 590 585 549
f 590 549 525
f 581 590 525
f 590 581 647
f 581 680 647
f 732 647 680
f 732 680 719
f 581 525 602
f 581 602 682
f 581 682 680
f 719 680 682
f 364 397 431
f 364 431 375
f 496 431 397
f 505 431 496
f 505 496 511
f 358 386 397
f 358 397 364
f 502 397 386
f 496 397 502
f 561 562 511
f 496 561 511
f 502 561 496
f 562 561 597
f 597 696 700
f 724 700 696
f 358 294 337
f 337 386 358
f 407 386 337
f 477 386 407
f 502 386 477
f 524 502 477
f 561 502 524
f 598 561 524
f 597 561 598
f 697 597 598
f 696 597 697
f 696 797 724
f 697 797 696
f 287 332 337
f 287 337 294
f 390 337 332
f 407 337 390
f 451 407 390
f 477 407 451
f 523 477 451
f 524 477 523
f 606 524 523
f 598 524 606
f 691 598 606
f 697 598 691
f 794 697 691
f 797 697 794
f 797 794 816
f 286 352 332
f 286 332 287
f 387 332 352
f 390 332 387
f 452 390 387
f 451 390 452
f 530 451 452
f 523 451 530
f 603 523 530
f 606 523 603
f 679 606 603
f 691 606 679
f 781 691 679
f 794 691 781
f 816 794 781
f 291 324 352
f 291 352 286
f 392 352 324
f 387 352 392
f 485 387 392
f 452 387 485
f 519 452 485
f 530 452 519
f 604 530 519
f 603 530 604
f 670 603 604
f 679 603 670
f 670 747 781
f 679 670 781
f 324 291 304
f 382 324 304
f 392 324 382
f 382 445 485
f 392 382 485
f 604 519 584
f 651 604 584
f 670 604 651
f 747 670 651
f 747 651 717
f 382 304 396
f 445 382 396
f 651 585 647
f 584 585 651
f 717 651 647
f 647 585 590
